
<svg xmlns="http://www.w3.org/2000/svg" xmlns:xlink="http://www.w3.org/1999/xlink" version="1.1" preserveAspectRatio="xMidYMid slice" style="" xml:space="preserve" width="1200" height="580"><rect id="backgroundrect" width="100%" height="100%" x="0" y="0" fill="none" stroke="none"/>
<style type="text/css">
	.st0{fill:#E5D0CE00;}
	.st1{fill:#5D100900;}
	.st2{fill:#FFFFFF;}
	.st3{fill:#996A59;}
	.st4{fill:#E5E5E5;}
	.st5{fill:#56595C;}
	.st6{fill:#CFB8A6;stroke:#231F20;stroke-width:5;stroke-miterlimit:10;}
	.st7{fill:#ABB2B7;}
	.st8{fill:#434A50;}
	.st9{fill:#E85100;}
	.st10{fill:#42723B;}
	.st11{fill:#8EAA89;}
	.st12{fill:#D9E3D8;stroke:#231F20;stroke-width:5;stroke-miterlimit:10;}
	.st13{fill:#B3C7B1;}
	.st14{fill:#D9E3D8;}
	.st15{fill:#BBBBBC00;}
	.st16{fill:#C4C9CC00;}
	.st17{fill:#BEC3C7;}
	.st18{fill:#756F66;}
	.st19{fill:#898379;}
	.st20{fill:#FC4E4E;}
	.st21{fill:#383838;}
	.st22{fill:#6B2121;}
	.st23{fill:#EBBC54;
	stroke-dasharray:5 10 30 10;
		  stroke-dashoffset:15;}
	.st24{fill:#AD3636;}
	.st25{opacity:0.5;

		  }
	.st26{fill:#1BA49B;}
	.st27{fill:#B5C6C5;}
	.st28{display:none;fill:#87CEDB;}
	.st29{display:none;}
	.st30{display:inline;}
	.st31{opacity:0.5;clip-path:url(#SVGID_2_);fill:url(#SVGID_3_);enable-background:new    ;}
	.st32{fill:#525456;}
	.st33{display:none;opacity:0.5;enable-background:new    ;}
	.st34{fill:#E7E6E8;}
	.st35{fill:#B0B3B5;}
	.st36{fill:#E39F22;}
	.st37{fill:#872220;}
	.st38{fill:#4A0606;}
	.st39{fill:#530707;}
	.st40{fill:#053139;}
	.st41{fill:#03282F;}
	.st42{fill:#636D6D;}
	.st43{fill:#E0B45D;}
	.st44{fill:#E2C374;}
	.st45{fill:#043E49;}
	.st46{fill:#741919;}
	.st47{fill:#8F2424;}
	.st48{fill:#EACD7E;}
	.st49{fill:#801D1A;}
	.st50{fill:#95A5A5;}
	.st51{fill:#748483;}
	.st52{fill:#051439;}
	.st53{fill:#EBEBEB;}
	.st54{fill:#151E57;}
	.st55{fill:#B91C11;}
	.st56{fill:#8E0F0C;}
	.st57{fill:#131D4C;}
	.st58{fill:#1D2865;}
	.st59{fill:#0C0C0C;}
	.st60{fill:#303030;}
	.st61{fill:#DBDBDB;}
	.st62{fill:#C6C6C6;}
	.st63{fill:#969696;}
	.st64{fill:#E9E0D6;}
	.st65{fill:#E0D9D3;}
	.st66{fill:#D8D3D0;}
	.st67{fill:#D6D0CC;}
	.st68{fill:#6D6E71;}
	.st69{fill:#909295;}
	.st70{fill:#3A9EA2;}
	.st71{fill:#40ADB2;}
	.st72{fill:#58595B;}
	.st73{fill:#EEEFEF;}
	.st74{fill:#C7CB36;}
	.st75{fill:#F1F3EE;}
	.st76{fill:#6666FF;}
	.st77{fill:#001B55;}
	.st78{fill:#7575FC;}
	.st79{fill:#0B132B;}
	.st80{fill:#070C19;}
	.st81{opacity:0.4;}
	.st82{fill:none;stroke:#FFFFFF00;stroke-width:4;stroke-linecap:round;stroke-linejoin:round;stroke-miterlimit:10;}

	
	.st90{fill:#303030;}
	.st91{fill:#DBDBDB;}
	.st92{fill:#CCCCCC;}
	.st93{fill:#F06339;}
	.st94{fill:#22B355;}
	.st95{fill:#F0643B;}
	.st96{fill:#F0653B;}
	.st97{fill:#F0643A;}
	.st98{fill:#F06338;}
	.st99{fill:#F06137;}
	.st100{fill:#3F4195;}
	.st101{fill:#424497;}

<!--
	@-webkit-keyframes rotate {
	    0% { -webkit-transform: rotate(0deg); }
	    100% {-webkit-transform: rotate(360deg); }
	}

	@-moz-keyframes rotate {
		    0% { -moz-transform: rotate(0deg); }
		    100% {-moz-transform: rotate(360deg); }
		}

	@-ms-keyframes rotate {
	    0% { -ms-transform: rotate(0deg); }
	    100% {-ms-transform: rotate(360deg); }
	}

	#wheel1 {
		transform-origin: 50% 50%;
		-moz-transform-origin : 53.88% 33.88%;
		animation: rotate 7s linear infinite;
		-moz-animation: rotate 7s linear infinite;
		-ms-animation: rotate 7s linear infinite;
	}
	#wheel2 {
		transform-origin: 50% 50%;
		-moz-transform-origin : 51.5% 38.5%;
		animation: rotate 10s linear reverse infinite;
		-moz-animation: rotate 10s linear reverse infinite;
		-ms-animation: rotate 10s linear reverse infinite;
	}

	@-webkit-keyframes rotate1 {
	    0% { -webkit-transform: rotate(-45deg); }
	    100% {-webkit-transform: rotate(-10deg); }
	}

	@-moz-keyframes rotate1 {
		    0% { -moz-transform: rotate(-45deg); }
		    100% {-moz-transform: rotate(-10deg); }
		}

	@-ms-keyframes rotate1 {
	    0% { -ms-transform: rotate(-45deg); }
	    100% {-ms-transform: rotate(-10deg); }
	}

	#arm1 {
		transform-origin:10% 10%;
				-moz-transform-origin: 68.5% 40.88%;
		animation: rotate1 3s linear alternate infinite;
		-moz-animation: rotate1 3s linear alternate infinite;
		-ms-animation: rotate1 3s linear alternate infinite;
	}

	@-webkit-keyframes move {
	    0% { -webkit-transform: translateY(5px); }
	    100% {-webkit-transform: translateY(0px); }
	}

	@-moz-keyframes move {
		    0% { -moz-transform: translateY(5px); }
		    100% {-moz-transform: translateY(0px); }
		}

	@-ms-keyframes move {
	    0% { -ms-transform: translate(5px); }
	    100% {-ms-transform: translate(0px); }
	}

	.fingers {
		transform-origin: 50% 50%;
		animation: move 1s alternate infinite;
		-moz-animation: move 1s alternate infinite;
		-ms-animation: move 1s alternate infinite;
	}
-->
	@-webkit-keyframes fade {
	    0% {  opacity:1; }
	    100% { opacity:0; }
	}

	@-moz-keyframes fade {
		    0% { opacity:1; }
		    100% { opacity:0; }
		}

	@-ms-keyframes fade {
	    0% { opacity:1; }
	    100% { opacity:0; }
	}

	#a1 {
		transform-origin: 50% 50%;
		-moz-transform-origin:50% 80%;
		animation: fade 1500ms infinite;
		-moz-animation: fade 3s alternate infinite;
		-ms-animation: fade 3s alternate infinite;
	}

	#a2 {
		transform-origin: 50% 50%;
		-moz-transform-origin:50% 85%;
		animation-name: fade;
		-moz-animation-duration: 1500ms;
		-moz-animation-delay:500ms;
		animation-duration: 1500ms;
		animation-delay:500ms;

		animation-iteration-count:infinite;
		-moz-animation: fade 3s alternate infinite;
		-ms-animation: fade 3s alternate infinite;
	}

	#a3 {
		transform-origin: 50% 50%;
		-moz-transform-origin:50% 90%;
		animation-name: fade;
		-moz-animation-duration: 1500ms;
		-moz-animation-delay:1000ms;
		animation-duration: 1500ms;
		animation-delay:1000ms;

		animation-iteration-count:infinite;
		-moz-animation: fade 3s alternate infinite;
		-ms-animation: fade 3s alternate infinite;
	}
	#line1
	{
		  transform: translate(50px, 100px);
		<!-- -moz-transform-origin:50% 50%;-->
		animation: line 1s alternate infinite;
		<!-- -moz-animation: line 2s alternate infinite;-->
		-ms-animation: line 1s alternate infinite;

	}
<!--	#line2
	{
		visibility:hidden;
	transform-origin: 0% 100%;
			-moz-transform-origin:45% 50%;

		animation: line 2.5s alternate infinite linear;
		-moz-animation: line 2.5s alternate infinite linear;
		-ms-animation: line 2.5s alternate infinite linear;
		animation-delay:0.5s
	}
	#line3
	{
	visibility:hidden;
	transform-origin: 0% 100%;
			-moz-transform-origin:45% 50%;
		animation: line 3s alternate infinite;
		-moz-animation: line 3s alternate infinite;
		-ms-animation: line 3s alternate infinite;
		animation-delay:1s;
	}-->
	@-webkit-keyframes line
	{
	0% { -webkit-transform: scaleX(0);
			visibility:visible;}
 
	100% { -webkit-transform: scaleX(1);
			visibility:visible;
	}
	#arz
	{	
		visibility:hidden;
		transform-origin:50% 50%;
		animation: ar 2s alternate infinite;
		-moz-animation: ar 2s alternate infinite;
		-ms-animation: ar 2s alternate infinite;
	}

	@-webkit-keyframes ar
	{
		0% { 
			box-shadow:0;
			
		}
		100% { 
			box-shadow:1;
			
		}
	}
</style>















<g class="currentLayer" style=""><title>Layer 1</title><g id="Background" class="">
	<g id="Layer_2">
		<rect class="st0" width="1200" height="580" id="svg_1"/>
	</g>
</g><g id="Floor">
	<rect y="398.5" class="st1" width="1200" height="181.5" id="svg_2"/>
</g><g id="Left_Cubicle">
	<rect y="120.80000305175781" class="st2" width="183" height="290.20001220703125" id="svg_3"/>
	<polygon class="st3" points="0,411 183,411 85.7,454.7 0,454.7  " id="svg_4"/>
	<g id="svg_5">
		<rect x="42.5" y="137.60000610351562" class="st4" width="32.5" height="32.5" id="svg_6"/>
		<rect x="1.5" y="137.60000610351562" class="st4" width="32.5" height="32.5" id="svg_7"/>
		<rect x="42.5" y="177.3000030517578" class="st4" width="32.5" height="32.5" id="svg_8"/>
		<rect x="1.5" y="177.3000030517578" class="st4" width="32.5" height="32.5" id="svg_9"/>
		<rect x="42.5" y="216.8000030517578" class="st4" width="32.5" height="32.5" id="svg_10"/>
		<rect x="1.5" y="216.8000030517578" class="st4" width="32.5" height="32.5" id="svg_11"/>
		<rect x="42.5" y="256.5" class="st4" width="32.5" height="32.5" id="svg_12"/>
		<rect x="1.5" y="256.5" class="st4" width="32.5" height="32.5" id="svg_13"/>
		<rect x="42.5" y="294.79998779296875" class="st4" width="32.5" height="32.5" id="svg_14"/>
		<rect x="1.5" y="294.79998779296875" class="st4" width="32.5" height="32.5" id="svg_15"/>
		<rect x="42.5" y="334.5" class="st4" width="32.5" height="32.5" id="svg_16"/>
		<rect x="1.5" y="334.5" class="st4" width="32.5" height="32.5" id="svg_17"/>
		<rect x="42.5" y="374" class="st4" width="32.5" height="32.5" id="svg_18"/>
		<rect x="1.5" y="374" class="st4" width="32.5" height="32.5" id="svg_19"/>
	</g>
	<g id="svg_20">
		<polygon class="st5" points="-55.5,439.9 57.4,439.9 66.8,427.5 -46.8,427.5   " id="svg_21"/>
		<rect x="-43" y="201.89999389648438" class="st6" width="99" height="229.6999969482422" id="svg_22"/>
		<polygon class="st7" points="58.5,199.3 60.7,203.5 60.7,431.2 58.5,434.2   " id="svg_23"/>
		<rect x="-55.5" y="439.8999938964844" class="st8" width="112.9000015258789" height="3.5" id="svg_24"/>
		<polygon class="st8" points="57.4,443.4 66.8,431.1 66.8,427.5 57.4,439.9   " id="svg_25"/>
		<path class="st9" d="M-40.4,326.4c0,0,60.6-13.4,93.8-59.5v164.8h-93.8V326.4z" id="svg_26"/>
	</g>
</g><g id="Right_Cubicle">
	
		<rect x="978.5" y="120.80000305175781" transform="matrix(-1,-3.700252e-11,3.700252e-11,-1,2179,531.826) " class="st10" width="222" height="290.20001220703125" id="svg_27"/>
	<polygon class="st11" points="1200.5,411 978.5,411 1075.8,454.7 1200.5,454.7  " id="svg_28"/>
	<g id="svg_29">
		
			<rect x="1117.199951171875" y="130.1999969482422" transform="matrix(-1,-1.406487e-11,1.406487e-11,-1,2333.333,332.3913) " class="st12" width="99" height="72" id="svg_30"/>
		<polygon class="st7" points="1114.6,129.4 1112.5,130.7 1112.5,202.1 1114.6,203   " id="svg_31"/>
		<path class="st13" d="M1213.5,180c0,0-60.6-2.6-93.8-11.5v31.8h93.8V180z" id="svg_32"/>
	</g>
	<path class="st13" d="M1138,290v124.4c0,11.2,10.8,14.9,23.6,14.9c12.9,0,38.9,0,38.9,0v-27.6V290H1138z" id="svg_33"/>
	<path class="st14" d="M1200.5,304.1c0,0-26,0-38.9,0s-23.6-3.7-23.6-14.9s14.7-12.1,22.9-12.6c8.2-0.5,39.6,0,39.6,0V304.1z" id="svg_34"/>
</g><g id="Layer_9">
	<polyline class="st15" points="183,411 91,454.7 1070,454.7 978,411 183,411  " id="svg_35"/>
</g><g id="Layer_1" class="" fill-opacity="1" fill="#4a90d6">
	<g id="Layer_3" fill="#4a90d6">
		<rect x="183" y="121.6474609375" class="st16" width="795" height="290.20001220703125" id="svg_36" fill="#4a90d6"/>
		<polygon class="st7" points="183,121.64746063947678 91,109.84745758771896 91,455.5474697947502 183,411.84745758771896 " id="svg_37" fill="#4a90d6"/>
		<polygon class="st7" points="978,121.64746063947678 1070,109.84745758771896 1070,455.5474697947502 978,411.84745758771896 " id="svg_38" fill="#4a90d6"/>
		<rect x="85.69999694824219" y="109.84745788574219" class="st17" width="5.300000190734863" height="345.70001220703125" id="svg_39" fill="#4a90d6"/>
		<rect x="1070" y="109.84745788574219" class="st17" width="5.300000190734863" height="345.70001220703125" id="svg_40" fill="#4a90d6"/>
	</g>
	<g id="Layer_1_1_" fill="#4a90d6">
		<g id="svg_41" fill="#4a90d6">
			<g id="svg_42" fill="#4a90d6">
				<rect x="529.0999755859375" y="151.9474639892578" class="st2" width="150.39999389648438" height="190.10000610351562" id="svg_43" fill="#4a90d6"/>
			</g>
			<g id="svg_44" fill="#4a90d6">
				<rect x="598.7999877929688" y="142.54745483398438" class="st18" width="11.100000381469727" height="16.399999618530273" id="svg_45" fill="#4a90d6"/>
			</g>
			<g id="svg_46" fill="#4a90d6">
				<rect x="522.5" y="151.9474639892578" class="st19" width="163.6999969482422" height="7" id="svg_47" fill="#4a90d6"/>
			</g>
		</g>
		<g id="svg_48" fill="#4a90d6">
			<g id="XMLID_960_" fill="#4a90d6">
				<g id="arz" fill="#4a90d6">
					<path class="st20" d="M569.8,189.94745758771896 c4.5,0.5 8,4.1 8.5,8.5 H589 c-0.6000000000000001,-10.4 -8.9,-18.7 -19.3,-19.3 L569.8,189.94745758771896 L569.8,189.94745758771896 z" id="svg_49" fill="#4a90d6"/>
				</g>
				<g id="arc2" fill="#4a90d6">
					<path class="st21" d="M563.5,191.34745758771896 c1.2,-0.7000000000000001 2.5,-1.2 4,-1.4 v-10.8 c-4,0.2 -7.6,1.6 -10.7,3.7 L563.5,191.34745758771896 z" id="svg_50" fill="#4a90d6"/>
				</g>
				<g id="arc3" fill="#4a90d6">
					<path class="st22" d="M558.9,199.74745758771897 L558.9,199.74745758771897 c0,-2.8 1.1,-5.2 2.8,-7 l-6.7,-8.4 c-4.2,3.8 -6.9,9.2 -6.9,15.3 c0,0.5 0,1 0.1,1.5 L558.9,199.74745758771897 z" id="svg_51" fill="#4a90d6"/>
				</g>
				<g id="arc4" fill="#4a90d6">
					<path class="st23" d="M578.3,200.74745758771897 c-0.6000000000000001,4.8 -4.7,8.6 -9.7,8.6 c-1.3,0 -2.6,-0.30000000000000004 -3.7,-0.7000000000000001 l-5.2,9.4 c2.7,1.3 5.8,2.1 9,2.1 c10.9,0 19.8,-8.6 20.4,-19.3 L578.3,200.74745758771897 z" id="svg_52" fill="#4a90d6"/>
				</g>
				<g id="arc5" fill="#4a90d6">
					<path class="st24" d="M562.9,207.54745758771895 c-1.8,-1.3 -3.2,-3.3 -3.7,-5.5 l-10.6,1.4 c1.1,5.7 4.5,10.5 9.2,13.5 L562.9,207.54745758771895 z" id="svg_53" fill="#4a90d6"/>
				</g>
			</g>
				<rect x="553" y="255.8474578857422" class="st26" width="107.69999694824219" height="9.800000190734863" id="svg_54" fill="#4a90d6"/>
			<g class="st25" id="line1" fill="#4a90d6">	
			<animate attributeName="width" from="0" to="107.7" dur="10s" fill="freeze" repeatCount="indefinite" transform="translate(0,0.8474575877189636) "/>
			</g>
			<g class="st25" id="line2" fill="#4a90d6">
				<rect x="553" y="272.2474365234375" class="st23" width="107.69999694824219" height="9.800000190734863" id="svg_55" fill="#4a90d6"/>
				<animate attributeName="width" from="0" to="107.7" dur="10s" fill="freeze" repeatCount="indefinite" transform="translate(0,0.8474575877189636) "/>
			
			</g>
			<g class="st25" id="line3" fill="#4a90d6">
				<rect x="553" y="288.5474548339844" class="st27" width="85.5" height="9.800000190734863" id="svg_56" fill="#4a90d6"/>
			</g>
		</g>
		<g id="svg_57" fill="#4a90d6">
			<g id="svg_58" fill="#4a90d6">
				<g id="svg_59" fill="#4a90d6">
					<path class="st28" d="M699.9,249.14745758771897 c0,41.6 -33.8,75.4 -75.4,75.4 c-41.7,0 -75.4,-33.8 -75.4,-75.4 c0,-41.7 33.8,-75.4 75.4,-75.4 C666.1,173.64745758771897 699.9,207.44745758771896 699.9,249.14745758771897 z" id="svg_60" fill="#4a90d6"/>
					<g class="st29" id="svg_61" fill="#4a90d6">
						<g class="st30" id="svg_62" fill="#4a90d6">
							<g id="svg_63" fill="#4a90d6">
								<defs transform="translate(0,0.8474575877189636) ">
									<circle id="SVGID_1_" cx="624.4000244140625" cy="248.3000030517578" r="75.4000015258789" fill="#4a90d6"/>
								</defs>
								<clipPath id="SVGID_2_" transform="translate(0,0.8474575877189636) ">
									<use xlink:href="#SVGID_1_" style="overflow:visible;" id="svg_64"/>
								</clipPath>
								
									<linearGradient id="SVGID_3_" gradientUnits="userSpaceOnUse" x1="706.148193359375" y1="316.5671081542969" x2="632.4088134765625" y2="255.4687042236328" gradientTransform="matrix(1 0 0 1 0 2)" transform="translate(0,0.8474575877189636) ">
									<stop offset="0" style="stop-color:#FFFFFF"/>
									<stop offset="7.180000e-02" style="stop-color:#DFDFDF"/>
									<stop offset="0.2156" style="stop-color:#A5A5A5"/>
									<stop offset="0.3593" style="stop-color:#727272"/>
									<stop offset="0.4998" style="stop-color:#494949"/>
									<stop offset="0.6362" style="stop-color:#292929"/>
									<stop offset="0.7674" style="stop-color:#121212"/>
									<stop offset="0.8912" style="stop-color:#050505"/>
									<stop offset="1" style="stop-color:#000000"/>
								</linearGradient>
								<polygon class="st31" points="578.5,282.9474636912346 639.0999755859375,343.5474697947502 710.4000244140625,343.84745758771896 743.0999755859375,285.1474453806877 712.2000122070312,252.14746063947678 669,208.9474636912346 665.0999755859375,211.9474636912346 652.7000122070312,199.74745148420334 639.2999877929688,214.64746063947678 632.5999755859375,223.24745148420334 624.7000122070312,228.04745453596115 634.5,238.24745148420334 632.7999877929688,242.24745148420334 625.9000244140625,234.74745148420334 614.4000244140625,245.9474636912346 599.2999877929688,231.54745453596115 594.7000122070312,252.74745148420334 574.5999755859375,256.9474636912346 591,275.9474636912346 " id="svg_65" fill="#4a90d6"/>
							</g>
						</g>
					</g>
				</g>
				<g id="svg_66" fill="#4a90d6">
					<path id="wheel1" class="st24" d="M627.4,199.14745758771897 c0,0 0,0.6000000000000001 1.2,0.7000000000000001 l3.1,0.4 c0,0 0.9,0.1 1.4,1.2 c0,0 0.9,1.3 0.5,2 l-2.5,3.6 c0,0 -0.5,0.6000000000000001 0,1.3 l2.6,2.5 c0,0 0.8,0.5 1.4,-0.2 l2.4,-1.9 c0,0 0.9,-0.9 2.3,-0.2 c0,0 1.5,0.5 1.7000000000000002,1.5 l0.5,3.7 c0,0 0,0.9 1.1,0.9 h3.3 c0,0 1,-0.2 1,-1 l0.4,-3.4 c0,0 0,-1 1.1,-1.5 c0,0 1.5,-1 2.5,-0.30000000000000004 l3,2.2 c0,0 0.6000000000000001,0.6000000000000001 1.6,-0.1 l2.2,-2.2 c0,0 0.7000000000000001,-0.8 0,-1.6 l-2.1,-2.7 c0,0 -0.6000000000000001,-0.7000000000000001 0,-2 c0,0 0.5,-1.6 1.7000000000000002,-1.8 l3.4,-0.5 c0,0 1,0 1.1,-1.1 v-3.1 c0,0 0.1,-1.2 -1.2,-1.3 l-3.5,-0.30000000000000004 c0,0 -1.1,-0.5 -1.4,-1.5 c0,0 -0.7000000000000001,-1.5 0.1,-2.3 l2,-2.8 c0,0 0.6000000000000001,-0.8 0,-1.5 l-2.7,-2.6 c0,0 -0.7000000000000001,-0.30000000000000004 -1.1,0.1 l-3.2,2.5 c0,0 -1.1,0.30000000000000004 -2.2,-0.4 c0,0 -1.2,-0.6000000000000001 -1.3,-1 c0,0 -0.5,-3.9 -0.5,-4.1 c0,0 0,-0.9 -0.9,-0.9 h-3.5 c0,0 -0.8,0.1 -0.8,0.7000000000000001 l-0.6000000000000001,4.4 c0,0 -0.6000000000000001,0.9 -1.5,1.1 c0,0 -1.6,0.4 -2.1,0 l-2.9,-2.2 c0,0 -0.8,-0.7000000000000001 -1.5,-0.1 L631,185.84745758771896 c0,0 -0.5,0.5 0,1.2 l2.4,3.2 c0,0 0.8,0.9 -0.2,2.5 c0,0 -0.5,1.3 -2.1,1.5 c-1.6,0.2 -3,0.4 -3,0.4 s-0.9,0 -0.9,0.9 C627.2,196.44745758771896 627.4,199.14745758771897 627.4,199.14745758771897 zM638.2,197.04745758771895 c0,-3.7 3,-6.7 6.7,-6.7 s6.7,3 6.7,6.7 s-3,6.7 -6.7,6.7 S638.2,200.74745758771897 638.2,197.04745758771895 z" fill="#4a90d6"/>
					<path id="wheel2" class="st21" d="M595.3,237.44745758771896 c0,0 0.30000000000000004,0.8 1.9,0.2 l4.2,-1.1 c0,0 1.2,-0.4 2.5,0.8 c0,0 1.8,1.2 1.7000000000000002,2.2 l-1.2,6 c0,0 -0.4,1 0.8,1.7000000000000002 l4.7,1.8 c0,0 1.3,0.1 1.7000000000000002,-0.9 l2.1,-3.7 c0,0 0.7000000000000001,-1.6 2.9,-1.5 c0,0 2.2,-0.2 3,1 l2.7,4.5 c0,0 0.5,1.1 1.9,0.5 l4.2,-1.8 c0,0 1.2,-0.8 0.8,-1.8 l-1.3,-4.5 c0,0 -0.6000000000000001,-1.2 0.6000000000000001,-2.6 c0,0 1.3,-2.1 3.1,-1.7000000000000002 l5,1.2 c0,0 1,0.5 1.9,-1 l1.6,-4 c0,0 0.5,-1.4 -0.9,-2.1 l-4.1,-2.4 c0,0 -1.2,-0.5 -1.1,-2.6 c0,0 -0.30000000000000004,-2.4 1.2,-3.2 l4.1,-2.5 c0,0 1.3,-0.6000000000000001 0.8,-2 l-1.7000000000000002,-3.9 c0,0 -0.6000000000000001,-1.5 -2.2,-1 l-4.7,1.5 c0,0 -1.6,0 -2.6,-1.1 c0,0 -1.7000000000000002,-1.6 -1.2,-3 l1.1,-4.7 c0,0 0.30000000000000004,-1.4 -0.8,-1.9 l-4.9,-1.9 c0,0 -1,-0.1 -1.4,0.7000000000000001 l-2.7,4.9 c0,0 -1.3,1.1 -3.1,0.7000000000000001 c0,0 -1.8,-0.2 -2.3,-0.6000000000000001 c0,0 -2.8,-4.7 -2.9,-4.9 c0,0 -0.5,-1.1 -1.6,-0.6000000000000001 l-4.5,1.9 c0,0 -0.9,0.6000000000000001 -0.7000000000000001,1.4 l1.6,6 c0,0 -0.30000000000000004,1.5 -1.4,2.3 c0,0 -1.8,1.3 -2.7,1.2 l-4.9,-1.2 c0,0 -1.4,-0.5 -2,0.7000000000000001 l-1.8,4.5 c0,0 -0.4,0.9 0.6000000000000001,1.5 l4.8,2.7 c0,0 1.5,0.7000000000000001 1.1,3.4 c0,0 0.1,2 -1.8,3 c-1.9,1.1 -3.6,2.1 -3.6,2.1 s-1.1,0.5 -0.6000000000000001,1.7000000000000002 C593.6,234.24745758771897 595.3,237.44745758771896 595.3,237.44745758771896 zM607.9,228.94745758771896 c-2,-4.7 0.2,-10.2 4.9,-12.2 s10.2,0.2 12.2,4.9 s-0.2,10.2 -4.9,12.2 S610,233.64745758771897 607.9,228.94745758771896 z" fill="#4a90d6"/>
				</g>
			</g>
			<path class="st32" d="M616.3,210.84745758771896 c0,0 -15.7,-0.4 -14.3,17.7 C602,228.54745758771895 602.2,214.24745758771897 616.3,210.84745758771896 z" id="svg_67" fill="#4a90d6"/>
			<path class="st28" d="M611,287.34745758771896 c0,0 22.5,-1.8 17.9,-27.4 C628.9,259.947457587719 630.7,280.447457587719 611,287.34745758771896 z" id="svg_68" fill="#4a90d6"/>
			<path class="st33" d="M651.9,209.64745758771897 c0,0 -15.8,-3.7 -18.2,14.8 C633.7,224.44745758771896 636.9,210.04745758771895 651.9,209.64745758771897 z" id="svg_69" fill="#4a90d6"/>
			<path class="st20" d="M642.3,207.34745758771896 c0,0 10.8,3.3 13.3,-9.5 C655.6,197.74745758771897 652.7,207.64745758771897 642.3,207.34745758771896 z" id="svg_70" fill="#4a90d6"/>
		</g>
		<g id="svg_71" fill="#4a90d6">
			<g id="XMLID_103_" fill="#4a90d6">
				<path class="st23" d="M737.4,319.54745758771895 c0.1,1.5 1.4,2.6 2.9,2.6 h1.1 c1.3,0 2.4,-0.9 2.6,-2.1 l1.8,-11.5 l-8.9,0.1 L737.4,319.54745758771895 z" id="svg_72" fill="#4a90d6"/>
			</g>
			<g id="svg_73" fill="#4a90d6">
				<g id="svg_74" fill="#4a90d6">
					<path class="st34" d="M736.5,311.447457587719 l-2.8,-94.1 l2.5,0.5 c4.6,0.9 8.3,4.7 9.2,9.5 l0.9,84.1 H736.5 z" id="svg_75" fill="#4a90d6"/>
				</g>
			</g>
			<g id="svg_76" fill="#4a90d6">
				<rect x="734.7000122070312" y="306.6474304199219" class="st35" width="13.300000190734863" height="5.599999904632568" id="svg_77" fill="#4a90d6"/>
			</g>
			<g id="XMLID_112_" fill="#4a90d6">
				<path class="st36" d="M707.7,436.947457587719 h-1.9 l-9.4,-105.6 h16.1 l-0.9,101.8 C711.5,435.24745758771894 709.8,436.947457587719 707.7,436.947457587719 z" id="svg_78" fill="#4a90d6"/>
			</g>
			<g id="svg_79" fill="#4a90d6">
				<path class="st37" d="M711.6,431.84745758771896 l-0.2,3 c-0.1,2.5 -2,4.5 -4.4,4.8 l-16.7,1.7000000000000002 c-0.7000000000000001,0.1 -1.3,-0.4 -1.4,-1.1 c-0.2,-0.7000000000000001 0.2,-1.4 0.8,-1.7000000000000002 l15.6,-6.9 C705.3,431.647457587719 705.5,433.84745758771896 711.6,431.84745758771896 z" id="svg_80" fill="#4a90d6"/>
			</g>
			<g id="XMLID_111_" fill="#4a90d6">
				<path class="st36" d="M720.5,436.947457587719 h1.5 l9.4,-105.6 h-16.1 l0.9,101.3 C716.2,435.04745758771895 718.1,436.947457587719 720.5,436.947457587719 z" id="svg_81" fill="#4a90d6"/>
			</g>
			<g id="svg_82" fill="#4a90d6">
				<path class="st37" d="M716,431.84745758771896 l0.30000000000000004,3 c0.30000000000000004,2.5 2.2,4.4 4.6,4.6 l16.8,0.9 c0.7000000000000001,0 1.2,-0.4 1.4,-1.1 c0.1,-0.7000000000000001 -0.2,-1.4 -0.9,-1.6 l-15.8,-6.3 C722.4,431.34745758771896 722.2,433.54745758771895 716,431.84745758771896 z" id="svg_83" fill="#4a90d6"/>
			</g>
			<g id="XMLID_110_" fill="#4a90d6">
				<path class="st38" d="M696.5,182.34745758771896 c5.4,-2.5 12.1,1.1 15.1,8.1 c2.9,7 0.9,14.7 -4.5,17.2 c-5.4,2.5 -12.1,-1.1 -15.1,-8.1 C689.1,192.54745758771895 691.1,184.84745758771896 696.5,182.34745758771896 z" id="svg_84" fill="#4a90d6"/>
			</g>
			<g id="XMLID_109_" fill="#4a90d6">
				<polygon class="st36" points="722.5999755859375,227.24745148420334 703.7000122070312,228.24745148420334 707.4000244140625,202.24745148420334 720.7999877929688,202.24745148420334 " id="svg_85" fill="#4a90d6"/>
			</g>
			<g id="XMLID_108_" fill="#4a90d6">
				<path class="st23" d="M730.8,190.34745758771896 c0,11.6 -6.4,21.6 -12.6,21.6 c-6.2,0 -15.6,-8.9 -15.6,-20.5 c0,-11.6 4.8,-15.9 13.1,-15.9 S730.8,178.74745758771897 730.8,190.34745758771896 z" id="svg_86" fill="#4a90d6"/>
			</g>
			<g id="XMLID_105_" fill="#4a90d6">
				<path class="st39" d="M733.2,181.54745758771895 c0.8,-8.2 -5.1,-14.4 -10.3,-13.4 c0,0 -3.2,-2.7 -8.3,-2.7 c-8.3,0 -14.1,8.4 -14.1,16.4 v6.4 c8.7,-17.2 19.5,-10.6 19.5,-10.6 c9.5,-1.4 10.8,13.3 10.8,13.3 C730.8,190.64745758771897 732.9,184.04745758771895 733.2,181.54745758771895 zM716.8,171.54745758771895 L716.8,171.54745758771895 L716.8,171.54745758771895 C716.9,171.54745758771895 716.8,171.54745758771895 716.8,171.54745758771895 z" id="svg_87" fill="#4a90d6"/>
			</g>
			<g id="XMLID_104_" fill="#4a90d6">
				<path class="st39" d="M725.8,178.54745758771895 c0,0 -12.8,17.5 -25.7,17.5 C700.1,196.04745758771895 698.9,162.04745758771895 725.8,178.54745758771895 z" id="svg_88" fill="#4a90d6"/>
			</g>
			<g id="svg_89" fill="#4a90d6">
				<path class="st40" d="M730.9,266.74745758771894 l5.9,-20.2 c0.5,-1.6 0.6000000000000001,-3.3 0.4,-5 l-3.4,-24.1 l-11.9,-3.5 c-0.1,0.30000000000000004 -0.5,2.9 -1,6.9 c-1.6,2.1 -4.1,3.4 -6.8,3.4 c-2.8,0 -5.2,-1.3 -6.8,-3.4 c-0.7000000000000001,-3.9 -1.2,-6.6 -1.3,-6.9 l-12.1,3.4 l-3.6,26.7 l6.6,23.5 l-3.8,10 c-3.4,9 -4.2,18.7 -2.5,28.1 l7.1,38 h33.2 l6.6,-38.6 c1.5,-9 0.7000000000000001,-18.3 -2.4,-26.9 L730.9,266.74745758771894 z" id="svg_90" fill="#4a90d6"/>
			</g>
			<g id="XMLID_102_" fill="#4a90d6">
				<path class="st23" d="M704.4,193.14745758771897 c0.8,2.3 0.4,4.6 -1,5.1 s-3.1,-0.9 -3.9,-3.2 c-0.8,-2.3 -0.4,-4.6 1,-5.1 C701.8,189.44745758771896 703.5,190.84745758771896 704.4,193.14745758771897 z" id="svg_91" fill="#4a90d6"/>
			</g>
			<g id="XMLID_101_" fill="#4a90d6">
				<path class="st23" d="M760.4,252.94745758771896 c1.6,-0.4 3.2,0.6000000000000001 3.6,2.3 l0.30000000000000004,1.2 c0.30000000000000004,1.4 -0.30000000000000004,2.9 -1.6,3.6 l-11.9,5.9 l-2.4,-9.9 L760.4,252.94745758771896 z" id="svg_92" fill="#4a90d6"/>
			</g>
			<g id="XMLID_100_" fill="#4a90d6">
				<path class="st2" d="M751.2,255.44745758771896 l3.5,9.6 l-50.2,16.9 c-3,1 -6.1,-0.6000000000000001 -7.2,-3.7 l-14.5,-42 c-3.3,-12.6 3,-18 11,-18.9 l0.5,17.2 l13.1,33.7 L751.2,255.44745758771896 z" id="svg_93" fill="#4a90d6"/>
			</g>
			<g id="svg_94" fill="#4a90d6">
				<path class="st2" d="M721.8,213.94745758771896 c0,0 -1,8.7 -6.9,10.3 c0,0 1.3,8.1 8.4,4.5 c7.1,-3.6 4.5,-13.3 4.5,-13.3 L721.8,213.94745758771896 z" id="svg_95" fill="#4a90d6"/>
			</g>
			<g id="svg_96" fill="#4a90d6">
				<path class="st2" d="M705.8,213.94745758771896 c0,0 1.5,9.6 9.1,10.3 c0,0 -1.3,8.1 -8.4,4.5 c-7.1,-3.6 -6.6,-13.3 -6.6,-13.3 L705.8,213.94745758771896 z" id="svg_97" fill="#4a90d6"/>
			</g>
			<g id="svg_98" fill="#4a90d6">
				<circle class="st2" cx="703.2000122070312" cy="198.4474639892578" r="1.2999999523162842" id="svg_99" fill="#4a90d6"/>
			</g>
			<g id="svg_100" fill="#4a90d6">
				<path class="st36" d="M725.1,199.74745758771897 h1.2 c0.9,0 1.7000000000000002,-0.8 1.7000000000000002,-1.7000000000000002 l0,0 h-4.6 l0,0 C723.4,199.04745758771895 724.2,199.74745758771897 725.1,199.74745758771897 z" id="svg_101" fill="#4a90d6"/>
			</g>
			<g id="svg_102" fill="#4a90d6">
				
					<rect x="747.8240966796875" y="254.60133361816406" transform="matrix(0.9455,-0.3255,0.3255,0.9455,-43.8703,258.5939) " class="st35" width="5.599999904632568" height="13.300000190734863" id="svg_103" fill="#4a90d6"/>
			</g>
		</g>
		<g id="svg_104" fill="#4a90d6">
			<g id="svg_105" fill="#4a90d6">
				<path class="st41" d="M324.2,365.947457587719 c-0.2,0 -0.5,0 -0.7000000000000001,-0.1 l-41.9,-7.9 L263.5,278.84745758771896 c-0.5,-2.1 0.8,-4.2 2.9,-4.7 s4.2,0.8 4.7,2.9 l16.9,74.1 l36.9,6.9 c2.1,0.4 3.5,2.4 3.1,4.5 S326,365.947457587719 324.2,365.947457587719 z" id="svg_106" fill="#4a90d6"/>
			</g>
			<g id="svg_107" fill="#4a90d6">
				<path class="st41" d="M232.4,294.74745758771894 l46,-6.2 l11.2,64.7 L273,369.647457587719 l-18.8,-3.5 c-3.5,-0.6000000000000001 -6.2,-3.3 -7,-6.7 L232.4,294.74745758771894 z" id="svg_108" fill="#4a90d6"/>
			</g>
			<g id="svg_109" fill="#4a90d6">
				<path class="st42" d="M322.5,363.947457587719 c-1.8,0 -3.4,-1.2 -3.8,-3 l-1.3,-5.8 c-3.5,-15.5 -16.5,-27.2 -32.2,-29.3 l-8.7,-1.1 c-2.1,-0.30000000000000004 -3.6,-2.2 -3.4,-4.4 c0.30000000000000004,-2.1 2.2,-3.6 4.4,-3.4 l8.7,1.1 c18.9,2.5 34.5,16.6 38.8,35.3 l1.3,5.8 c0.5,2.1 -0.8,4.2 -2.9,4.7 C323.1,363.947457587719 322.8,363.947457587719 322.5,363.947457587719 z" id="svg_110" fill="#4a90d6"/>
			</g>
			<g id="svg_111" fill="#4a90d6">
				<path class="st42" d="M241.5,421.84745758771896 c-1.5,0 -3,-0.9 -3.6,-2.4 c-0.8,-2 0.1,-4.3 2.1,-5.1 l33,-14 l33,14 c2,0.8 2.9,3.1 2.1,5.1 s-3.1,2.9 -5.1,2.1 L273,408.84745758771896 l-30,12.7 C242.5,421.74745758771894 242,421.84745758771896 241.5,421.84745758771896 z" id="svg_112" fill="#4a90d6"/>
			</g>
			<g id="svg_113" fill="#4a90d6">
				<g id="svg_114" fill="#4a90d6">
					<path class="st43" d="M290.4,430.24745758771894 l-5.3,-2.8 l27.5,-52.1 c0.2,-0.4 0.2,-0.9 0,-1.3 s-0.6000000000000001,-0.7000000000000001 -1,-0.8 l-25.9,-4.8 l2.4,-12.7 l25.9,4.8 c4.5,0.8 8.3,3.8 10.3,7.9 s1.9,8.9 -0.2,13 L290.4,430.24745758771894 z" id="svg_115" fill="#4a90d6"/>
				</g>
			</g>
			<g id="svg_116" fill="#4a90d6">
				<path class="st42" d="M273,419.447457587719 c-2.1,0 -3.9,-1.7000000000000002 -3.9,-3.9 v-46 c0,-2.1 1.7000000000000002,-3.9 3.9,-3.9 c2.1,0 3.9,1.7000000000000002 3.9,3.9 v46 C276.8,417.74745758771894 275.1,419.447457587719 273,419.447457587719 z" id="svg_117" fill="#4a90d6"/>
			</g>
			<g id="svg_118" fill="#4a90d6">
				<g id="svg_119" fill="#4a90d6">
					<path class="st44" d="M332.1,424.647457587719 L319,368.447457587719 c-0.1,-0.5 -0.4,-1 -0.9,-1.2 l-20.9,-8 l4.7,-12.1 l20.9,8 c5,1.9 8.5,6.4 9.1,11.7 l6.6,57 L332.1,424.647457587719 z" id="svg_120" fill="#4a90d6"/>
				</g>
			</g>
			<g id="svg_121" fill="#4a90d6">
				<path class="st41" d="M286.7,423.34745758771896 l-1.4,2.8 c-1.2,2.3 -0.5,5.2 1.7000000000000002,6.7 l15.3,10.7 c0.6000000000000001,0.4 1.4,0.30000000000000004 1.9,-0.2 s0.6000000000000001,-1.4 0.1,-1.9 L293,426.647457587719 C293,426.647457587719 291.6,428.447457587719 286.7,423.34745758771896 z" id="svg_122" fill="#4a90d6"/>
			</g>
			<g id="svg_123" fill="#4a90d6">
				<path class="st41" d="M331,420.647457587719 l-0.4,3.2 c-0.30000000000000004,2.6 1.3,5.1 3.9,5.8 l18.2,4.9 c0.7000000000000001,0.2 1.5,-0.2 1.8,-0.8 c0.30000000000000004,-0.7000000000000001 0.1,-1.5 -0.6000000000000001,-1.9 l-15.8,-10.2 C338.1,421.54745758771895 337.4,423.84745758771896 331,420.647457587719 z" id="svg_124" fill="#4a90d6"/>
			</g>
			<g id="XMLID_98_" fill="#4a90d6">
				<rect x="266.70001220703125" y="255.74745178222656" class="st36" width="14.800000190734863" height="25.299999237060547" id="svg_125" fill="#4a90d6"/>
			</g>
			<g id="XMLID_97_" fill="#4a90d6">
				<path class="st23" d="M289.6,243.34745758771896 c0,11.8 -6.6,21.9 -12.9,21.9 s-16,-9 -16,-20.8 s4.9,-16.1 13.4,-16.1 C282.6,228.34745758771896 289.6,231.54745758771895 289.6,243.34745758771896 z" id="svg_126" fill="#4a90d6"/>
			</g>
			<g id="XMLID_94_" fill="#4a90d6">
				<path class="st40" d="M292,234.24745758771897 c0.9,-8 -5.2,-14 -10.5,-13 c0,0 -3.3,-2.7 -8.5,-2.6 c-8.5,0 -14.4,8.2 -14.4,15.9 v6.2 c8.9,-16.7 20,-10.3 20,-10.3 c9.7,-1.4 11.1,12.9 11.1,12.9 C289.6,243.04745758771895 291.7,236.64745758771897 292,234.24745758771897 zM275.3,224.54745758771895 L275.3,224.54745758771895 L275.3,224.54745758771895 L275.3,224.54745758771895 z" id="svg_127" fill="#4a90d6"/>
			</g>
			<g id="XMLID_93_" fill="#4a90d6">
				<path class="st40" d="M284.4,231.24745758771897 c0,0 -17.3,20.2 -30.5,20.2 C253.9,251.44745758771896 256.9,215.24745758771897 284.4,231.24745758771897 z" id="svg_128" fill="#4a90d6"/>
			</g>
			<g id="svg_129" fill="#4a90d6">
				<path class="st2" d="M287.4,301.647457587719 c3,-10.6 -0.1,-21.7 2.1,-32.4 l-7.2,-1.9 c0,0.2 0,0.5 0,0.7000000000000001 c0,4.5 -3.6,8.1 -8.1,8.1 s-8.1,-3.6 -8.1,-8.1 c0,-0.30000000000000004 0,-0.5 0,-0.8 l-2.8,0.8 c0,0.5 -0.2,1 -0.5,1.6 c-2.3,4.4 -3,10 -4.5,14.8 c-1.6,5 -2.7,10.1 -4.4,15.1 l9.6,32.2 h21.2 l7.3,-25.3 C289.5,306.84745758771896 286.5,304.84745758771896 287.4,301.647457587719 z" id="svg_130" fill="#4a90d6"/>
			</g>
			<g id="XMLID_92_" fill="#4a90d6">
				<path class="st45" d="M321.1,353.84745758771896 c0,0 -9,1.1 -19.4,9.1 c-4.8,3.7 -6,7.5 -6,7.5 l-26.1,-4 c-5.6,-0.9 -10.6,-4.1 -13.7,-8.9 s-4,-10.7 -2.4,-16.2 l1.3,-4.8 l36.8,-0.5 l4.4,9.4 L321.1,353.84745758771896 z" id="svg_131" fill="#4a90d6"/>
			</g>
			<g id="svg_132" fill="#4a90d6">
				<path class="st46" d="M296,293.647457587719 l-3.5,-23.5 l-11,-3 c-0.30000000000000004,1 -4.4,30.2 -6.4,44.1 c-2.1,-10.9 -8.1,-43 -8.4,-44.1 l-11.2,3 l-3.3,23.5 l7,30.3 l-7,21.5 c0,0 13.1,-7.9 27.2,-7.2 c9.8,0.5 14.3,2.4 14.3,2.4 l-4.7,-17.5 L296,293.647457587719 z" id="svg_133" fill="#4a90d6"/>
			</g>
			<g id="XMLID_91_" fill="#4a90d6">
				<polygon class="st47" points="274,318.4474636912346 286.8999938964844,282.9474636912346 284.70001220703125,278.4474636912346 290.1000061035156,278.4474636912346 292.6000061035156,270.1474453806877 281.5,263.6474453806877 " id="svg_134" fill="#4a90d6"/>
			</g>
			<g id="XMLID_90_" fill="#4a90d6">
				<path class="st48" d="M272.3,332.84745758771896 c-1.4,0.6000000000000001 -2.1,2.2 -1.5,3.6 l0.4,1 c0.5,1.2 1.8,1.9 3.1,1.7000000000000002 l12,-2.3 l-3.4,-8.3 L272.3,332.84745758771896 z" id="svg_135" fill="#4a90d6"/>
			</g>
			<g id="XMLID_89_" fill="#4a90d6">
				<path class="st46" d="M282.1,327.147457587719 l4.2,10.9 l23,-12.7 c2.1,-1.1 3.1,-3.5 2.7,-5.8 l-8.5,-40.7 c-0.9,-4.3 -4.3,-7.6 -8.6,-8.4 l-2.4,-0.4 l2.7,23.6 l5.4,23.4 L282.1,327.147457587719 z" id="svg_136" fill="#4a90d6"/>
			</g>
			<g id="XMLID_88_" fill="#4a90d6">
				
					<ellipse transform="matrix(0.9347,-0.3555,0.3555,0.9347,-70.3195,108.4771) " class="st23" cx="259.69873046875" cy="246.39208984375" rx="2.700000047683716" ry="4.300000190734863" id="svg_137" fill="#4a90d6"/>
			</g>
			<g id="svg_138" fill="#4a90d6">
				<path class="st2" d="M313.6,275.24745758771894 c0,0 9.5,13.8 28.2,8.9 l-25.6,22.1 l-10.7,0.9 L313.6,275.24745758771894 z" id="svg_139" fill="#4a90d6"/>
			</g>
			<g id="XMLID_87_" fill="#4a90d6">
				<path class="st23" d="M317.3,301.447457587719 c1.5,-0.4 3,0.5 3.3,2 l0.30000000000000004,1.1 c0.30000000000000004,1.3 -0.30000000000000004,2.6 -1.5,3.2 l-11,5.2 l-2.2,-8.7 L317.3,301.447457587719 z" id="svg_140" fill="#4a90d6"/>
			</g>
			<g id="XMLID_86_" fill="#4a90d6">
				<path class="st49" d="M309.4,302.54745758771895 l2.6,9.5 l-46.5,14.9 c-2.7,0.9 -5.7,-0.6000000000000001 -6.7,-3.3 l-13.4,-37 c-3,-11.1 2.8,-15.8 10.2,-16.6 l0.5,15.1 l9.5,28.5 L309.4,302.54745758771895 z" id="svg_141" fill="#4a90d6"/>
			</g>
			<g id="svg_142" fill="#4a90d6">
				<path class="st41" d="M304.6,379.54745758771895 c-0.2,0 -0.5,0 -0.7000000000000001,-0.1 l-50.5,-9.5 c-5,-0.9 -8.9,-4.7 -10,-9.7 l-16.2,-71 c-0.5,-2.1 0.8,-4.2 2.9,-4.7 c2.1,-0.5 4.2,0.8 4.7,2.9 l16.2,71 c0.4,1.9 2,3.4 3.9,3.8 l50.5,9.5 c2.1,0.4 3.5,2.4 3.1,4.5 C308.1,378.24745758771894 306.4,379.54745758771895 304.6,379.54745758771895 z" id="svg_143" fill="#4a90d6"/>
			</g>
			<g id="svg_144" fill="#4a90d6">
				<path class="st42" d="M286.2,374.34745758771896 c-1.8,0 -3.4,-1.2 -3.8,-3 l-1.3,-5.8 c-3.5,-15.5 -16.5,-27.2 -32.2,-29.3 l-8.7,-1.1 c-2.1,-0.30000000000000004 -3.6,-2.2 -3.4,-4.4 c0.30000000000000004,-2.1 2.2,-3.6 4.4,-3.4 l8.7,1.1 c18.9,2.5 34.5,16.6 38.8,35.3 l1.3,5.8 c0.5,2.1 -0.8,4.2 -2.9,4.7 C286.8,374.24745758771894 286.5,374.34745758771896 286.2,374.34745758771896 z" id="svg_145" fill="#4a90d6"/>
			</g>
			<g id="XMLID_85_" fill="#4a90d6">
				<polygon class="st47" points="275.1000061035156,311.4474636912346 261.29998779296875,282.9474636912346 263.6000061035156,278.4474636912346 258.1000061035156,278.4474636912346 255.5,270.1474453806877 266.70001220703125,263.6474453806877 " id="svg_146" fill="#4a90d6"/>
			</g>
			<g id="svg_147" fill="#4a90d6">
				<path class="st36" d="M281.7,253.64745758771897 h-1.2 c-0.9,0 -1.7000000000000002,-0.7000000000000001 -1.7000000000000002,-1.7000000000000002 l0,0 h4.5 l0,0 C283.4,252.84745758771896 282.7,253.64745758771897 281.7,253.64745758771897 z" id="svg_148" fill="#4a90d6"/>
			</g>
		</g>
		<g id="svg_149" fill="#4a90d6">
			<g id="svg_150" fill="#4a90d6">
				<g id="XMLID_19_" fill="#4a90d6">
					<path class="st50" d="M282.2,444.74745758771894 h-1.4 c-1.1,0 -2,-1.1 -2,-2.5 v-68.9 h5.3 v68.9 C284.2,443.647457587719 283.3,444.74745758771894 282.2,444.74745758771894 z" id="svg_151" fill="#4a90d6"/>
				</g>
				<g id="XMLID_18_" fill="#4a90d6">
					<path class="st50" d="M476.2,444.74745758771894 h-1.4 c-1.1,0 -2,-1.1 -2,-2.5 v-68.9 h5.3 v68.9 C478.1,443.647457587719 477.3,444.74745758771894 476.2,444.74745758771894 z" id="svg_152" fill="#4a90d6"/>
				</g>
			</g>
			<g id="svg_153" fill="#4a90d6">
				<g id="XMLID_13_" fill="#4a90d6">
					<rect x="278.8999938964844" y="432.8474426269531" class="st51" width="5.300000190734863" height="5.400000095367432" id="svg_154" fill="#4a90d6"/>
				</g>
				<g id="XMLID_9_" fill="#4a90d6">
					<rect x="472.8999938964844" y="432.8474426269531" class="st51" width="5.300000190734863" height="5.400000095367432" id="svg_155" fill="#4a90d6"/>
				</g>
			</g>
			<g id="svg_156" fill="#4a90d6">
				<rect x="276.5" y="347.2474365234375" class="st50" width="204.10000610351562" height="86.5999984741211" id="svg_157" fill="#4a90d6"/>
			</g>
			<g id="svg_158" fill="#4a90d6">
				<rect x="276.5" y="347.2474365234375" class="st51" width="204.10000610351562" height="3.5" id="svg_159" fill="#4a90d6"/>
			</g>
			<g id="XMLID_6_" fill="#4a90d6">
				<rect x="271" y="338.94744873046875" class="st27" width="215" height="9.399999618530273" id="svg_160" fill="#4a90d6"/>
			</g>
		</g>
		<g id="svg_161" fill="#4a90d6">
			<g id="svg_162" fill="#4a90d6">
				<polygon class="st52" points="509.79998779296875,294.0474697947502 508.20001220703125,294.0474697947502 483.1000061035156,294.0474697947502 482.3999938964844,379.24745148420334 485.79998779296875,441.24745148420334 504.29998779296875,441.24745148420334 502.70001220703125,378.6474453806877 508.29998779296875,331.0474697947502 509.70001220703125,331.0474697947502 515,377.24745148420334 513.7000122070312,441.24745148420334 533.0999755859375,441.24745148420334 536.5999755859375,378.4474636912346 536,294.0474697947502 " id="svg_163" fill="#4a90d6"/>
			</g>
			<g id="XMLID_75_" fill="#4a90d6">
				<path class="st36" d="M498.4,186.64745758771897 c0.8,2.8 0.2,5.8 -1.5,6.6 c-1.7000000000000002,0.8 -3.7,-0.8 -4.5,-3.7 c-0.8,-2.8 -0.2,-5.8 1.5,-6.6 C495.5,182.14745758771897 497.5,183.74745758771897 498.4,186.64745758771897 z" id="svg_164" fill="#4a90d6"/>
			</g>
			<g id="XMLID_74_" fill="#4a90d6">
				<path class="st36" d="M519.6,186.64745758771897 c-0.8,2.8 -0.2,5.8 1.5,6.6 c1.7000000000000002,0.8 3.7,-0.8 4.5,-3.7 c0.8,-2.8 0.2,-5.8 -1.5,-6.6 C522.5,182.14745758771897 520.4,183.74745758771897 519.6,186.64745758771897 z" id="svg_165" fill="#4a90d6"/>
			</g>
			<g id="XMLID_84_" fill="#4a90d6">
				<path class="st23" d="M480,338.34745758771896 h-4.9 c-1.7000000000000002,0 -3.1,-1.2 -3.4,-2.9 l-3,-15.8 H480 V338.34745758771896 z" id="svg_166" fill="#4a90d6"/>
			</g>
			<g id="XMLID_81_" fill="#4a90d6">
				<rect x="498.70001220703125" y="197.54745483398438" class="st36" width="20.200000762939453" height="28" id="svg_167" fill="#4a90d6"/>
			</g>
			<g id="XMLID_80_" fill="#4a90d6">
				<path class="st53" d="M519.9,214.44745758771896 c-0.9,3.4 -5.6,5.9 -11.2,5.9 s-10.3,-2.6 -11.2,-5.9 h-14.8 v79.6 h52.1 v-79.6 H519.9 z" id="svg_168" fill="#4a90d6"/>
			</g>
			<g id="XMLID_79_" fill="#4a90d6">
				<polygon class="st54" points="534.7999877929688,295.24745148420334 482.70001220703125,295.24745148420334 482.70001220703125,215.74745148420334 497.29998779296875,215.74745148420334 508.79998779296875,261.6474453806877 520.0999755859375,215.74745148420334 534.7999877929688,215.74745148420334 " id="svg_169" fill="#4a90d6"/>
			</g>
			<g id="XMLID_78_" fill="#4a90d6">
				<path class="st54" d="M482.7,290.24745758771894 H510 v3.3 c0,12 -9.8,21.8 -21.8,21.8 h-5.5 V290.24745758771894 z" id="svg_170" fill="#4a90d6"/>
			</g>
			<g id="XMLID_77_" fill="#4a90d6">
				<path class="st54" d="M509.3,261.647457587719 l12.9,-50.6 l17.9,3.2 c2.5,0.4 4.5,2.2 5.3,4.7 l9.5,57.6 l-12.5,43.1 l-9,-4.3 l7.7,-39.9 l-3.3,-16.2 v56.1 h-12.1 c-9.8,0 -17.7,-8.2 -17.7,-18.4 v-1.7000000000000002 L509.3,261.647457587719 z" id="svg_171" fill="#4a90d6"/>
			</g>
			<g id="XMLID_76_" fill="#4a90d6">
				<path class="st23" d="M522,198.24745758771897 c-0.1,2.5 -1.5,4.8 -3.5,6.1 l-4.1,2.6 c-3.4,2.2 -7.7,2.2 -11.1,0 l-4.1,-2.6 c-2.1,-1.3 -3.4,-3.6 -3.5,-6.1 l-1.2,-21.6 c-0.1,-2.4 0.7000000000000001,-4.8 2.3,-6.6 c1.6,-1.8 3.9,-2.8 6.2,-2.8 h11.8 c2.4,0 4.6,1 6.2,2.8 c1.6,1.8 2.5,4.2 2.3,6.6 L522,198.24745758771897 z" id="svg_172" fill="#4a90d6"/>
			</g>
			<g id="svg_173" fill="#4a90d6">
				<path class="st36" d="M496.6,173.54745758771895 v9.1 c0.7000000000000001,-1.6 2.3,-2.7 4.1,-2.6 c1.2,0 5.1,0.7000000000000001 9.1,-0.1 c5.6,-1 9.1,-3.5 9.1,-3.5 c0,4.3 0.9,8.8 1.8,12.2 v-15.1 H496.6 z" id="svg_174" fill="#4a90d6"/>
			</g>
			<g id="XMLID_70_" fill="#4a90d6">
				<polygon class="st55" points="506.6000061035156,225.74745148420334 504.20001220703125,243.24745148420334 506.6000061035156,262.5474697947502 510.8999938964844,262.5474697947502 513.2999877929688,243.24745148420334 510.8999938964844,225.74745148420334 " id="svg_175" fill="#4a90d6"/>
			</g>
			<g id="svg_176" fill="#4a90d6">
				<path class="st40" d="M523.3,173.14745758771897 c0,-4.9 -3.8,-8.9 -8.6,-8.9 h-11.9 c-4.7,0 -8.6,4 -8.6,8.9 v6.4 l0,0 l0.8,11.8 l1.4,-9.8 c0.7000000000000001,-1.7000000000000002 2.3,-2.8 4.2,-2.8 c1.2,0 5.1,0.7000000000000001 9.1,-0.1 c5.6,-1 9.1,-3.5 9.1,-3.5 c0,8.2 3.4,17.3 3.4,17.3 l0.9,-13 l0,0 v-6.3 H523.3 z" id="svg_177" fill="#4a90d6"/>
			</g>
			<g id="XMLID_73_" fill="#4a90d6">
				<polygon class="st56" points="511.5,227.04745453596115 506,227.04745453596115 504.5,217.34745758771896 513.0999755859375,217.34745758771896 " id="svg_178" fill="#4a90d6"/>
			</g>
			<g id="XMLID_72_" fill="#4a90d6">
				<polygon class="st2" points="503.8999938964844,228.24745148420334 497.5,215.74745148420334 497.5,207.4474636912346 508.79998779296875,217.4474636912346 " id="svg_179" fill="#4a90d6"/>
			</g>
			<g id="XMLID_71_" fill="#4a90d6">
				<polygon class="st2" points="513.5999755859375,228.24745148420334 520,215.74745148420334 520,207.4474636912346 508.79998779296875,217.4474636912346 " id="svg_180" fill="#4a90d6"/>
			</g>
			<g id="svg_181" fill="#4a90d6">
				<path class="st57" d="M508.8,261.647457587719 l-12.9,-50.6 l-16.7,2.9 c-3.1,0.5 -5.4,3.1 -5.7,6.4 l-10.3,55.1 l5,47.3 h12.3 l-1.5,-46.1 l2.2,-28.3 l-0.6000000000000001,67 l2.3,0.1 h9.5 c9.8,0 18.3,-7.2 18.3,-17.3 L508.8,261.647457587719 z" id="svg_182" fill="#4a90d6"/>
			</g>
			<g id="svg_183" fill="#4a90d6">
				<polygon class="st36" points="539.2000122070312,318.0474697947502 539.2000122070312,325.6474453806877 531.2999877929688,322.0474697947502 534,315.6474453806877 " id="svg_184" fill="#4a90d6"/>
			</g>
			<g id="svg_185" fill="#4a90d6">
				<path class="st52" d="M529.1,316.647457587719 c0,0 5,6.8 10.7,6.8 l-5,16.4 l-6.8,-24.5 L529.1,316.647457587719 z" id="svg_186" fill="#4a90d6"/>
			</g>
			<g id="XMLID_69_" fill="#4a90d6">
				<polygon class="st58" points="520.0999755859375,215.74745148420334 504.5,275.4474636912346 527.2000122070312,237.4474636912346 520.0999755859375,231.14746063947678 529,230.14746063947678 531.4000244140625,212.54745453596115 520.0999755859375,207.4474636912346 " id="svg_187" fill="#4a90d6"/>
			</g>
			<g id="XMLID_68_" fill="#4a90d6">
				<path class="st58" d="M507.8,267.447457587719 c0.5,-1 1.1,-1.8 2,-2.4 l-12.4,-49.4 v-8.2 l-11.4,5.2 l2.5,17.5 l8.9,1 l-7.1,6.3 L507.8,267.447457587719 z" id="svg_188" fill="#4a90d6"/>
			</g>
			<g id="XMLID_67_" fill="#4a90d6">
				<path class="st54" d="M504.5,275.447457587719 l13.7,-22.4 l17.4,37.3 v25.1 h-13.4 c-9.8,0 -17.7,-8.2 -17.7,-18.4 V275.447457587719 z" id="svg_189" fill="#4a90d6"/>
			</g>
			<g id="svg_190" fill="#4a90d6">
				<path class="st40" d="M495.1,193.44745758771896 L495.1,193.44745758771896 v-13.3 h1.8 v11.5 C497,192.64745758771897 496.1,193.44745758771896 495.1,193.44745758771896 z" id="svg_191" fill="#4a90d6"/>
			</g>
			<g id="svg_192" fill="#4a90d6">
				<path class="st40" d="M522.3,193.44745758771896 L522.3,193.44745758771896 c-1,0 -1.8,-0.8 -1.8,-1.8 v-11.5 h1.8 V193.44745758771896 z" id="svg_193" fill="#4a90d6"/>
			</g>
			<g id="svg_194" fill="#4a90d6">
				<path class="st36" d="M509.4,196.74745758771897 h-1.2 c-0.9,0 -1.7000000000000002,-0.7000000000000001 -1.7000000000000002,-1.7000000000000002 l0,0 h4.5 l0,0 C511.1,196.04745758771895 510.3,196.74745758771897 509.4,196.74745758771897 z" id="svg_195" fill="#4a90d6"/>
			</g>
			<g id="svg_196" fill="#4a90d6">
				<g id="svg_197" fill="#4a90d6">
					<path class="st59" d="M499.1,440.74745758771894 h-12.4 H482 c-3.5,0 -6.3,2.8 -6.3,6.3 v2.9 h23.1 c2,0 3.7,-1.4 4.2,-3.3 l1.5,-5.9 H499.1 z" id="svg_198" fill="#4a90d6"/>
				</g>
				<g id="svg_199" fill="#4a90d6">
					<path d="M494.3,449.84745758771896 h-19.5 l0,0 c0,-5.1 4.1,-9.2 9.2,-9.2 h1.2 C490.2,440.74745758771894 494.3,444.84745758771896 494.3,449.84745758771896 L494.3,449.84745758771896 z" id="svg_200" fill="#4a90d6"/>
				</g>
			</g>
			<g id="svg_201" fill="#4a90d6">
				<g id="svg_202" fill="#4a90d6">
					<path class="st59" d="M519,440.74745758771894 h12.4 h4.7 c3.5,0 6.3,2.8 6.3,6.3 v2.9 h-23.1 c-2,0 -3.7,-1.4 -4.2,-3.3 l-1.5,-5.9 H519 z" id="svg_203" fill="#4a90d6"/>
				</g>
				<g id="svg_204" fill="#4a90d6">
					<path d="M543.5,449.84745758771896 H524 l0,0 c0,-5.1 4.1,-9.2 9.2,-9.2 h1.2 C539.4,440.74745758771894 543.5,444.84745758771896 543.5,449.84745758771896 L543.5,449.84745758771896 z" id="svg_205" fill="#4a90d6"/>
				</g>
			</g>
		</g>
	</g>
	<g id="svg_206" fill="#4a90d6">
		<g id="svg_207" fill="#4a90d6">
			<g id="TV" fill="#4a90d6">
				<path class="st60" d="M400.6,208.64745758771897 H290.3 c-0.6000000000000001,0 -1,-0.5 -1,-1 v-68.2 c0,-0.5 0.4,-1 1,-1 h110.4 c0.6000000000000001,0 1,0.5 1,1 v68.2 C401.6,208.14745758771897 401.2,208.64745758771897 400.6,208.64745758771897 z" id="svg_208" fill="#4a90d6"/>
				<rect x="293.8999938964844" y="144.1474609375" class="st61" width="103.0999984741211" height="53.599998474121094" id="svg_209" fill="#4a90d6"/>
				<path class="st62" d="M293.9,180.64745758771897 c0,0 23.1,-9.8 53.1,-13.5 s50,-3 50,-3 v33.5 H293.9 V180.64745758771897 z" id="svg_210" fill="#4a90d6"/>
			</g>
		</g>
	</g>
</g><g id="Laptop_MS">
	<g id="svg_211">
		<g id="Laptop_1_">
			<path class="st63" d="M394.1,336.1H346c-0.6,0-1-0.4-1-1l0,0c0-0.6,0.4-1,1-1h48.1c0.5,0,1,0.4,1,1l0,0     C395.1,335.6,394.6,336.1,394.1,336.1z" id="svg_212"/>
			<path class="st63" d="M394.1,336.1h-24.4c-0.5,0-1-0.4-1-1l9-28.9c0-0.6,0.5-1,1-1h24.4c0.5,0,1,0.4,1,1l-9,28.9     C395.1,335.7,394.6,336.1,394.1,336.1z" id="svg_213"/>
		</g>
		<g id="svg_214">
			<path class="st2" d="M392.3,313.9c0,0-0.8,1.5-1.2,2.4c-0.4,0.9-1,2.6-1,2.6l-2.3,3.1l-1-2.4l-3.6,6.3l3.9-9.8l1.2,3.4     L392.3,313.9z" id="svg_215"/>
			<g id="svg_216">
				<path class="st2" d="M391.5,319.5c-0.2-1.1-0.3-1.5-0.1-2.5c0.2-1,1-3.1,1-3.1s-0.8,1.5-1.2,2.4c-0.4,0.9-1,2.6-1,2.6      s0,0.2,0,0.3c0,0.2,0.1,0.4,0.1,0.6c0.1,0.5,0.4,1.4,0.1,2.6c-0.4,1.4-1.8,3.4-1.8,3.5c0,0,2-1.4,2.7-3.1      C391.6,321.8,391.7,320.6,391.5,319.5z" id="svg_217"/>
			</g>
		</g>
	</g>
</g><g id="Table">
	<g id="svg_218">
		<polygon class="st64" points="927.7,314.8 751.9,314.8 757.9,302 921.7,302   " id="svg_219"/>
		<rect x="751.9000244140625" y="314.79998779296875" class="st65" width="175.8000030517578" height="4" id="svg_220"/>
		<path class="st66" d="M757.9,318.8c0,0-10.7,18.5-11.8,33.5s19.5,35,22.9,50s-9.2,28.5-9.2,28.5h145.7c0,0-25.2-45.8-19.8-70.1    c5.3-24.3,33.6-32.9,42-41.9H757.9z" id="svg_221"/>
		<path class="st67" d="M752,318.8c0,0-7.3,18.5-8.4,33.5c-1.2,15,16.2,35,19.8,50c3.5,15-9.4,28.5-9.4,28.5h149.2    c0,0-25.8-45.8-20.3-70.1c5.5-24.3,34.4-32.9,43-41.9H752z" id="svg_222"/>
	</g>
</g><g id="Robot">
	<g class="fingers" id="svg_223">
		<rect x="789.2999877929688" y="225.3000030517578" class="st68" width="2.5" height="23" id="svg_224"/>
		<rect x="788.7000122070312" y="236.60000610351562" class="st69" width="3.700000047683716" height="3.700000047683716" id="svg_225"/>
		<rect x="788.7000122070312" y="228.6999969482422" class="st69" width="3.700000047683716" height="3.700000047683716" id="svg_226"/>
	</g>
	<g class="fingers" id="svg_227">
		<rect x="793.9000244140625" y="222.5" class="st68" width="2.5" height="25.600000381469727" id="svg_228"/>
		<rect x="793.2999877929688" y="233.8000030517578" class="st69" width="3.700000047683716" height="3.700000047683716" id="svg_229"/>
		<rect x="793.2999877929688" y="225.89999389648438" class="st69" width="3.700000047683716" height="3.700000047683716" id="svg_230"/>
	</g>
	<g class="fingers" id="svg_231">
		<rect x="798.2999877929688" y="224.5" class="st68" width="2.5" height="24.100000381469727" id="svg_232"/>
		<rect x="797.7000122070312" y="235.8000030517578" class="st69" width="3.700000047683716" height="3.700000047683716" id="svg_233"/>
		<rect x="797.7000122070312" y="227.89999389648438" class="st69" width="3.700000047683716" height="3.700000047683716" id="svg_234"/>
	</g>
	<g class="fingers" id="svg_235">
		<rect x="802.5999755859375" y="227.5" class="st68" width="2.5" height="21.100000381469727" id="svg_236"/>
		<rect x="802" y="238.8000030517578" class="st69" width="3.700000047683716" height="3.700000047683716" id="svg_237"/>
		<rect x="802" y="230.8000030517578" class="st69" width="3.700000047683716" height="3.700000047683716" id="svg_238"/>
	</g>
	<g id="svg_239">
		<path class="st68" d="M789.9,252.7c-0.6-0.1-5.9-1.3-8.2-4.7c-2.3-3.4-0.7-12.7-0.4-14.5l3.5,0.6c-0.8,4.6-1.1,10.4-0.1,11.9    c1.3,1.9,4.7,3,6,3.2L789.9,252.7z" id="svg_240"/>
		
			<rect x="780.9000244140625" y="237.60000610351562" transform="matrix(0.1089,-0.9941,0.9941,0.1089,458.917,991.3774) " class="st69" width="2.9000000953674316" height="4.300000190734863" id="svg_241"/>
		
			<rect x="782.4000244140625" y="246.8000030517578" transform="matrix(0.6867,-0.727,0.727,0.6867,65.3607,648.1007) " class="st69" width="4.300000190734863" height="2.9000000953674316" id="svg_242"/>
	</g>
	<g id="svg_243">
		<polygon class="st68" points="793.5,259 791,259 789.3,253.7 789.3,249.2 791.8,249.2 791.8,253.6   " id="svg_244"/>
		<polygon class="st68" points="802.6,249.5 805.1,249.5 805.1,253.3 803.6,258.2 801.1,258.2 802.6,253.3   " id="svg_245"/>
		<rect x="793.2999877929688" y="267.20001220703125" class="st69" width="3.5999999046325684" height="27.399999618530273" id="svg_246"/>
		<rect x="797.2999877929688" y="267.20001220703125" class="st69" width="3.5999999046325684" height="27.399999618530273" id="svg_247"/>
		<rect x="794.7000122070312" y="253.3000030517578" class="st68" width="4.400000095367432" height="20.799999237060547" id="svg_248"/>
		<rect x="777.7000122070312" y="299.3999938964844" class="st68" width="37.79999923706055" height="7.300000190734863" id="svg_249"/>
		<rect x="789.2000122070312" y="292.3999938964844" class="st70" width="15" height="7.300000190734863" id="svg_250"/>
		<rect x="789.2000122070312" y="297.8999938964844" class="st71" width="15" height="1.7999999523162842" id="svg_251"/>
		<rect x="788" y="247.6999969482422" class="st70" width="17.700000762939453" height="6.5" id="svg_252"/>
		<rect x="790.7000122070312" y="258" class="st70" width="13.100000381469727" height="5" id="svg_253"/>
		<rect x="791.0999755859375" y="271.3999938964844" class="st72" width="11.699999809265137" height="4.400000095367432" id="svg_254"/>
	</g>
	<g id="svg_255">
		<polygon class="st73" points="829.5,261.7 830.6,261 822.6,248.9 820.7,248.6   " id="svg_256"/>
		<polygon class="st71" points="831.9,265.5 837.7,261 835.8,258.6 830.1,260.8   " id="svg_257"/>
		<path class="st72" d="M824.2,249.5c-4.7,0-8.6-3.9-8.6-8.6c0-4.7,3.9-8.6,8.6-8.6c4.7,0,8.6,3.9,8.6,8.6    C832.8,245.7,829,249.5,824.2,249.5z M824.2,233c-4.4,0-8,3.6-8,8c0,4.4,3.6,8,8,8c4.4,0,8-3.6,8-8    C832.2,236.5,828.6,233,824.2,233z" id="svg_258"/>
		<rect x="842.2999877929688" y="268.29998779296875" class="st72" width="14.399999618530273" height="13.5" id="svg_259"/>
		<polygon class="st70" points="828,238.7 855.2,270.7 842.9,275.6 820.2,242.8   " id="svg_260"/>
		<rect x="866.2999877929688" y="281.3999938964844" class="st71" width="22.299999237060547" height="11.5" id="svg_261"/>
		<g id="svg_262">
			<circle class="st71" cx="848.5999755859375" cy="272.29998779296875" r="6.599999904632568" id="svg_263"/>
			<circle class="st68" cx="848.5999755859375" cy="272.29998779296875" r="3.4000000953674316" id="svg_264"/>
			<circle class="st73" cx="848.5999755859375" cy="272.29998779296875" r="1.600000023841858" id="svg_265"/>
		</g>
		<rect x="834.0999755859375" y="303.8999938964844" class="st68" width="57.5" height="3" id="svg_266"/>
		<rect x="834.0999755859375" y="291.8999938964844" class="st70" width="56.900001525878906" height="13.5" id="svg_267"/>
		<rect x="836.4000244140625" y="289" class="st71" width="25.899999618530273" height="12.699999809265137" id="svg_268"/>
		<rect x="834.2000122070312" y="284.5" class="st71" width="30.299999237060547" height="4.5" id="svg_269"/>
		<rect x="866.2999877929688" y="295.3999938964844" class="st74" width="22.299999237060547" height="6.400000095367432" id="svg_270"/>
		<rect x="876.2999877929688" y="283.79998779296875" class="st75" width="10" height="6" id="svg_271"/>
		<g id="svg_272">
			<rect x="873" y="283.79998779296875" class="st75" width="1.5" height="1.5" id="svg_273"/>
			<rect x="870.4000244140625" y="283.79998779296875" class="st75" width="1.5" height="1.5" id="svg_274"/>
			<rect x="867.7999877929688" y="283.79998779296875" class="st75" width="1.5" height="1.5" id="svg_275"/>
		</g>
		<g id="svg_276">
			<rect x="873" y="286" class="st75" width="1.5" height="1.5" id="svg_277"/>
			<rect x="870.4000244140625" y="286" class="st75" width="1.5" height="1.5" id="svg_278"/>
			<rect x="867.7999877929688" y="286" class="st75" width="1.5" height="1.5" id="svg_279"/>
		</g>
		<g id="svg_280">
			<rect x="873" y="288.29998779296875" class="st75" width="1.5" height="1.5" id="svg_281"/>
			<rect x="870.4000244140625" y="288.29998779296875" class="st75" width="1.5" height="1.5" id="svg_282"/>
			<rect x="867.7999877929688" y="288.20001220703125" class="st75" width="1.5" height="1.5" id="svg_283"/>
		</g>
		<rect x="838.9000244140625" y="281.70001220703125" class="st68" width="20.799999237060547" height="2.799999952316284" id="svg_284"/>
		<g id="svg_285">
			<circle class="st71" cx="830.7999877929688" cy="263.20001220703125" r="2.5999999046325684" id="svg_286"/>
			<circle class="st68" cx="830.7999877929688" cy="263.20001220703125" r="1.2999999523162842" id="svg_287"/>
			<circle class="st73" cx="830.7999877929688" cy="263.20001220703125" r="0.6000000238418579" id="svg_288"/>
		</g>
	</g>
	<g id="arm1">
		
		<rect x="873.2000122070312" y="250.39999389648438" transform="matrix(0.6974,-0.7167,0.7167,0.6974,83.9306,707.7172) " class="st68" width="13.600000381469727" height="8.100000381469727" id="svg_289"/>
		<polygon class="st70" points="875.7,244.5 863.9,234 861.8,242 870.1,249.2   " id="svg_290"/>
		<polygon class="st71" points="823.1,245.3 861.6,242.1 861.6,233.3 823.1,236.5   " id="svg_291"/>
		<g id="svg_292">
			<circle class="st71" cx="824.2000122070312" cy="240.89999389648438" r="4.400000095367432" id="svg_293"/>
			<circle class="st68" cx="824.2000122070312" cy="240.89999389648438" r="2.200000047683716" id="svg_294"/>
			<circle class="st73" cx="824.2000122070312" cy="240.89999389648438" r="1.100000023841858" id="svg_295"/>
		</g>
		<g id="svg_296">
			<circle class="st71" cx="861.5999755859375" cy="237.6999969482422" r="4.400000095367432" id="svg_297"/>
			<circle class="st68" cx="861.5999755859375" cy="237.6999969482422" r="2.200000047683716" id="svg_298"/>
			<circle class="st73" cx="861.5999755859375" cy="237.6999969482422" r="1.100000023841858" id="svg_299"/>
		</g>
		<g id="svg_300">
			<circle class="st71" cx="872.9000244140625" cy="246.8000030517578" r="3.700000047683716" id="svg_301"/>
			<circle class="st68" cx="872.9000244140625" cy="246.8000030517578" r="1.899999976158142" id="svg_302"/>
			<circle class="st73" cx="872.9000244140625" cy="246.8000030517578" r="0.8999999761581421" id="svg_303"/>
		</g>
		<g id="svg_304">
			<polygon class="st71" points="894,267.7 897,266.9 893.8,255.5 883.6,251.1 882.4,254.1 891.1,257.8    " id="svg_305"/>
			<circle class="st72" cx="892.2999877929688" cy="256.79998779296875" r="2.299999952316284" id="svg_306"/>
		</g>
		<g id="svg_307">
			<polygon class="st71" points="892.8,268.6 891.9,271.6 880.5,268.4 876.2,258.2 879.1,257 882.9,265.7    " id="svg_308"/>
			<circle class="st72" cx="881.7999877929688" cy="266.8999938964844" r="2.299999952316284" id="svg_309"/>
		</g>
		
			<rect x="868.4000244140625" y="248.1999969482422" transform="matrix(0.6974,-0.7167,0.7167,0.6974,85.3575,704.2355) " class="st71" width="16.399999618530273" height="5.699999809265137" id="svg_310"/>
	</g>
</g><g id="Poster_2" class="">
	<g id="Poster_stuff_2_">
		<rect x="934.0914916992188" y="209.9847412109375" class="st76" width="110.5999984741211" height="237.8000030517578" id="svg_311"/>
		<rect x="928.3915405273438" y="202.68475341796875" class="st77" width="121.9000015258789" height="7.400000095367432" id="svg_312"/>
		<rect x="928.3915405273438" y="447.7847595214844" class="st77" width="121.9000015258789" height="7.400000095367432" id="svg_313"/>
	</g>
	<rect x="934.0914916992188" y="210.08474731445312" class="st78" width="110.5999984741211" height="76.5999984741211" id="svg_314"/>
	<g id="svg_315">
		<path d="M950.7915237426757,252.0847454071045 v9.9 H949.4915237426758 V252.0847454071045 h-3.5 v-1.3 h8.3 v1.3 H950.7915237426757 z" id="svg_316"/>
		<path d="M962.2915237426757,252.0847454071045 h-5.5 v3.1 h4.9 v1.3 h-4.9 v4.2 h5.5 v1.3 H955.4915237426758 v-11.2 h6.8 V252.0847454071045 z" id="svg_317"/>
		<path d="M971.0915237426758,252.1847454071045 c-0.5,-0.2 -1.1,-0.30000000000000004 -1.7000000000000002,-0.30000000000000004 c-1.2,0 -2.3,0.4 -3.2,1.3 c-0.9,0.9 -1.3,1.9 -1.3,3.2 s0.4,2.3 1.3,3.2 c0.9,0.9 1.9,1.3 3.2,1.3 c0.6000000000000001,0 1.1,-0.1 1.7000000000000002,-0.30000000000000004 c0.5,-0.2 1,-0.5 1.4,-0.9 l0.9,0.9 c-0.5,0.5 -1.2,0.9 -1.8,1.2 c-0.7000000000000001,0.30000000000000004 -1.4,0.4 -2.1,0.4 c-1.6,0 -3,-0.6000000000000001 -4.1,-1.7000000000000002 s-1.7000000000000002,-2.5 -1.7000000000000002,-4.1 s0.6000000000000001,-3 1.7000000000000002,-4.1 c1.1,-1.1 2.5,-1.7000000000000002 4.1,-1.7000000000000002 c0.7000000000000001,0 1.4,0.1 2.1,0.4 c0.7000000000000001,0.30000000000000004 1.3,0.7000000000000001 1.8,1.2 L972.4915237426758,253.0847454071045 C972.0915237426758,252.6847454071045 971.5915237426758,252.3847454071045 971.0915237426758,252.1847454071045 z" id="svg_318"/>
		<path d="M976.2915237426757,250.78474540710448 v4.4 h5.8 v-4.4 h1.3 v11.2 h-1.3 v-5.5 h-5.8 v5.5 h-1.3 v-11.2 H976.2915237426757 z" id="svg_319"/>
		<path d="M953.3915237426758,271.2847454071045 h-5.5 v3.1 h4.9 v1.3 h-4.9 v4.2 h5.5 v1.3 h-6.8 v-11.2 h6.8 V271.2847454071045 z" id="svg_320"/>
		<path d="M955.6915237426758,269.98474540710447 l3.5,4.5 l3.5,-4.5 h1.6 l-4.3,5.6 l4.3,5.6 h-1.6 l-3.5,-4.5 l-3.5,4.5 h-1.6 l4.3,-5.6 l-4.3,-5.6 H955.6915237426758 z" id="svg_321"/>
		<path d="M966.7915237426757,269.98474540710447 v4.4 h5.8 v-4.4 h1.3 v11.2 h-1.3 v-5.5 h-5.8 v5.5 H965.4915237426758 v-11.2 H966.7915237426757 z" id="svg_322"/>
		<path d="M977.3915237426758,269.98474540710447 v11.2 h-1.3 v-11.2 H977.3915237426758 z" id="svg_323"/>
		<path d="M979.5915237426758,281.1847454071045 v-11.2 h5 c0.7000000000000001,0 1.3,0.2 1.8,0.7000000000000001 c0.5,0.5 0.8,1.3 0.7000000000000001,2.2 c-0.1,1 -0.5,1.6 -1.4,1.9 c0.8,0.2 1.4,0.7000000000000001 1.8,1.4 c0.30000000000000004,0.5 0.4,1 0.4,1.4 c0,0.9 -0.4,1.7000000000000002 -1.1,2.4 c-0.7000000000000001,0.7000000000000001 -1.6,1 -2.6,1 H979.5915237426758 zM980.8915237426758,271.2847454071045 v3.1 h3.7 c0.30000000000000004,0 0.6000000000000001,-0.1 0.9,-0.4 c0.2,-0.2 0.4,-0.7000000000000001 0.4,-1.2 c0,-0.5 -0.1,-0.9 -0.4,-1.1 c-0.2,-0.2 -0.5,-0.4 -0.9,-0.4 H980.8915237426758 zM980.8915237426758,279.8847454071045 h3.4 c0.7000000000000001,0 1.2,-0.2 1.7000000000000002,-0.6000000000000001 c0.5,-0.5 0.7000000000000001,-1 0.7000000000000001,-1.5 c0,-0.6000000000000001 -0.2,-1.1 -0.7000000000000001,-1.5 c-0.5,-0.5 -1,-0.7000000000000001 -1.7000000000000002,-0.7000000000000001 h-3.4 V279.8847454071045 z" id="svg_324"/>
		<path d="M990.9915237426758,269.98474540710447 v11.2 h-1.3 v-11.2 H990.9915237426758 z" id="svg_325"/>
		<path d="M997.2915237426757,271.2847454071045 v9.9 h-1.3 v-9.9 H992.4915237426758 v-1.3 h8.3 v1.3 H997.2915237426757 z" id="svg_326"/>
		<path d="M1003.4915237426758,269.98474540710447 v11.2 h-1.3 v-11.2 H1003.4915237426758 z" id="svg_327"/>
		<path d="M1014.4915237426758,270.7847454071045 c0.9,0.6000000000000001 1.5,1.4 1.9,2.5 c0.30000000000000004,0.7000000000000001 0.5,1.5 0.5,2.3 c0,0.8 -0.2,1.6 -0.5,2.3 c-0.4,1 -1,1.9 -1.9,2.5 c-0.9,0.7000000000000001 -2.1,1 -3.4,1 s-2.4,-0.30000000000000004 -3.4,-1 c-0.9,-0.6000000000000001 -1.5,-1.4 -1.9,-2.5 c-0.30000000000000004,-0.7000000000000001 -0.4,-1.5 -0.4,-2.3 c0,-0.8 0.1,-1.6 0.4,-2.3 c0.4,-1 1.1,-1.8 1.9,-2.5 c0.9,-0.7000000000000001 2.1,-1 3.4,-1 S1013.4915237426758,270.0847454071045 1014.4915237426758,270.7847454071045 zM1013.6915237426758,271.7847454071045 c-0.7000000000000001,-0.5 -1.6,-0.8 -2.6,-0.8 s-1.9,0.30000000000000004 -2.6,0.8 c-0.7000000000000001,0.5 -1.1,1.1 -1.5,1.9 c-0.2,0.6000000000000001 -0.4,1.2 -0.4,1.9 c0,0.7000000000000001 0.1,1.3 0.4,1.9 c0.30000000000000004,0.8 0.8,1.4 1.5,1.9 c0.7000000000000001,0.5 1.6,0.8 2.6,0.8 s1.9,-0.30000000000000004 2.6,-0.8 c0.7000000000000001,-0.5 1.2,-1.1 1.5,-1.9 c0.2,-0.6000000000000001 0.4,-1.2 0.4,-1.9 c0,-0.7000000000000001 -0.1,-1.3 -0.4,-1.9 C1014.8915237426758,272.8847454071045 1014.3915237426758,272.2847454071045 1013.6915237426758,271.7847454071045 z" id="svg_328"/>
		<path d="M1018.4915237426758,281.1847454071045 v-11.8 l8.6,9.2 v-8.6 h1.3 v11.8 l-8.6,-9.2 v8.5 H1018.4915237426758 z" id="svg_329"/>
	</g>
	<g id="svg_330">
		<path d="M950.8915237426758,384.1847454071045 c0,-1.2 0.4,-2.2 1.3,-3.1 c0.9,-0.9 1.9,-1.3 3.1,-1.3 s2.2,0.4 3.1,1.3 c0.9,0.9 1.3,1.9 1.3,3.1 c0,0.7000000000000001 -0.2,1.3 -0.5,1.9 c-0.2,0.4 -0.6000000000000001,0.9 -1,1.4 l-4.3,5.1 h6 v1.6 h-9.5 l6.7,-7.9 c0.30000000000000004,-0.4 0.6000000000000001,-0.7000000000000001 0.8,-1.1 c0.2,-0.4 0.30000000000000004,-0.7000000000000001 0.30000000000000004,-1.1 c0,-0.8 -0.30000000000000004,-1.4 -0.8,-1.9 c-0.5,-0.5 -1.2,-0.8 -1.9,-0.8 s-1.4,0.30000000000000004 -1.9,0.8 c-0.5,0.5 -0.8,1.2 -0.8,1.9 H950.8915237426758 z" id="svg_331"/>
		<path d="M963.4915237426758,385.5847454071045 h2 c0.5,-0.1 0.9,-0.30000000000000004 1.2,-0.6000000000000001 c0.4,-0.4 0.6000000000000001,-0.9 0.6000000000000001,-1.5 c0,-0.6000000000000001 -0.2,-1.1 -0.6000000000000001,-1.5 c-0.4,-0.4 -0.9,-0.6000000000000001 -1.5,-0.6000000000000001 c-0.4,0 -0.8,0.1 -1.1,0.30000000000000004 c-0.30000000000000004,0.2 -0.6000000000000001,0.5 -0.8,0.9 l-1.5,-0.7000000000000001 c0.30000000000000004,-0.7000000000000001 0.8,-1.2 1.4,-1.5 c0.6000000000000001,-0.4 1.3,-0.6000000000000001 2,-0.6000000000000001 c1,0 1.9,0.4 2.6,1.1 c0.7000000000000001,0.7000000000000001 1.1,1.6 1.1,2.6 c0,1 -0.4,1.9 -1.1,2.6 c-0.1,0.1 -0.1,0.1 -0.2,0.2 c0.30000000000000004,0.2 0.5,0.4 0.7000000000000001,0.6000000000000001 c0.9,0.9 1.3,2 1.3,3.2 c0,1.2 -0.4,2.3 -1.3,3.2 c-0.9,0.9 -2,1.3 -3.2,1.3 c-0.8,0 -1.6,-0.2 -2.3,-0.6000000000000001 c-0.7000000000000001,-0.4 -1.3,-1 -1.7000000000000002,-1.7000000000000002 l1.4,-0.8 c0.30000000000000004,0.5 0.6000000000000001,0.8 1.1,1.1 c0.5,0.30000000000000004 0.9,0.4 1.5,0.4 c0.8,0 1.5,-0.30000000000000004 2,-0.8 c0.6000000000000001,-0.6000000000000001 0.8,-1.2 0.8,-2 c0,-0.8 -0.30000000000000004,-1.5 -0.8,-2 c-0.5,-0.5 -1.1,-0.8 -1.8,-0.8 h-2 V385.5847454071045 z" id="svg_332"/>
		<path d="M975.9915237426758,382.5847454071045 c-0.4,-0.4 -0.9,-0.7000000000000001 -1.5,-0.7000000000000001 c-0.6000000000000001,0 -1.1,0.2 -1.5,0.7000000000000001 c-0.4,0.5 -0.6000000000000001,1 -0.6000000000000001,1.7000000000000002 v3.2 h-1 V381.0847454071045 h1 v0.9 c0.5,-0.7000000000000001 1.2,-1.1 2.2,-1.1 c0.9,0 1.7000000000000002,0.30000000000000004 2.2,1 c0.2,0.30000000000000004 0.4,0.5 0.6000000000000001,0.8 l-0.8,0.5 C976.2915237426757,382.98474540710447 976.1915237426758,382.7847454071045 975.9915237426758,382.5847454071045 z" id="svg_333"/>
		<path d="M983.5915237426758,386.48474540710447 c-0.6000000000000001,0.8 -1.4,1.2 -2.4,1.2 c-0.9,0 -1.7000000000000002,-0.30000000000000004 -2.4,-1 c-0.7000000000000001,-0.7000000000000001 -1,-1.4 -1,-2.4 c0,-0.9 0.30000000000000004,-1.7000000000000002 1,-2.4 s1.4,-1 2.4,-1 c1,0 1.8,0.4 2.4,1.2 v-3 h1 v8.3 h-1 V386.48474540710447 zM983.5915237426758,384.2847454071045 c0,-0.7000000000000001 -0.2,-1.2 -0.7000000000000001,-1.7000000000000002 c-0.5,-0.5 -1,-0.7000000000000001 -1.7000000000000002,-0.7000000000000001 c-0.7000000000000001,0 -1.2,0.2 -1.7000000000000002,0.7000000000000001 c-0.5,0.5 -0.7000000000000001,1 -0.7000000000000001,1.7000000000000002 c0,0.7000000000000001 0.2,1.2 0.7000000000000001,1.7000000000000002 c0.5,0.5 1,0.7000000000000001 1.7000000000000002,0.7000000000000001 c0.7000000000000001,0 1.2,-0.2 1.7000000000000002,-0.7000000000000001 C983.3915237426758,385.5847454071045 983.5915237426758,384.98474540710447 983.5915237426758,384.2847454071045 L983.5915237426758,384.2847454071045 z" id="svg_334"/>
		<path d="M950.8915237426758,407.48474540710447 c0,0.7000000000000001 0.4,1.1 1.3,1.4 c0.30000000000000004,0.1 0.6000000000000001,0.1 1,0.1 c0.30000000000000004,0 0.7000000000000001,0 1,-0.1 c0.8,-0.30000000000000004 1.3,-0.7000000000000001 1.3,-1.4 c0,-0.5 -0.2,-0.8 -0.7000000000000001,-1.1 c-0.30000000000000004,-0.2 -0.8,-0.30000000000000004 -1.6,-0.5 c-1.1,-0.30000000000000004 -1.8,-0.5 -2.2,-0.8 c-0.7000000000000001,-0.4 -1,-1.1 -1,-1.9 c0,-0.6000000000000001 0.2,-1.1 0.6000000000000001,-1.5 c0.4,-0.4 0.8,-0.7000000000000001 1.4,-0.9 c0.4,-0.1 0.8,-0.2 1.3,-0.2 c0.4,0 0.9,0.1 1.3,0.2 c0.6000000000000001,0.2 1.1,0.5 1.4,0.9 c0.4,0.4 0.6000000000000001,0.9 0.6000000000000001,1.5 h-1 c0,-0.7000000000000001 -0.4,-1.1 -1.3,-1.4 c-0.30000000000000004,-0.1 -0.6000000000000001,-0.1 -1,-0.1 c-0.30000000000000004,0 -0.7000000000000001,0 -1,0.1 c-0.8,0.30000000000000004 -1.3,0.7000000000000001 -1.3,1.4 c0,0.5 0.2,0.8 0.7000000000000001,1.1 c0.30000000000000004,0.2 0.8,0.30000000000000004 1.6,0.5 c1.1,0.30000000000000004 1.8,0.5 2.2,0.8 c0.7000000000000001,0.4 1,1.1 1,1.9 c0,0.6000000000000001 -0.2,1.1 -0.6000000000000001,1.5 c-0.4,0.4 -0.8,0.7000000000000001 -1.4,0.9 c-0.4,0.1 -0.8,0.2 -1.3,0.2 c-0.4,0 -0.9,-0.1 -1.3,-0.2 c-0.6000000000000001,-0.2 -1.1,-0.5 -1.4,-0.9 c-0.4,-0.4 -0.6000000000000001,-0.9 -0.6000000000000001,-1.5 H950.8915237426758 z" id="svg_335"/>
		<path d="M963.1915237426758,409.5847454071045 c-0.6000000000000001,0.30000000000000004 -1.2,0.5 -1.8,0.5 c-1,0 -1.9,-0.4 -2.6,-1.1 c-0.7000000000000001,-0.7000000000000001 -1.1,-1.6 -1.1,-2.6 s0.4,-1.9 1.1,-2.6 c0.7000000000000001,-0.7000000000000001 1.6,-1.1 2.6,-1.1 c0.6000000000000001,0 1.2,0.2 1.8,0.5 c0.6000000000000001,0.30000000000000004 1,0.8 1.3,1.3 l0.30000000000000004,0.5 l-5.4,3.1 c0,0.1 0.1,0.1 0.1,0.2 c0.5,0.5 1.1,0.8 1.8,0.8 c0.5,0 0.9,-0.1 1.3,-0.30000000000000004 c0.4,-0.2 0.7000000000000001,-0.5 1,-0.9 l0.9,0.5 C964.1915237426758,408.7847454071045 963.6915237426758,409.2847454071045 963.1915237426758,409.5847454071045 zM958.8915237426758,407.1847454071045 l4.4,-2.6 c-0.2,-0.2 -0.4,-0.4 -0.6000000000000001,-0.5 c-0.4,-0.2 -0.8,-0.30000000000000004 -1.3,-0.30000000000000004 c-0.7000000000000001,0 -1.3,0.30000000000000004 -1.8,0.8 c-0.5,0.5 -0.8,1.1 -0.8,1.8 C958.7915237426757,406.6847454071045 958.7915237426757,406.8847454071045 958.8915237426758,407.1847454071045 z" id="svg_336"/>
		<path d="M966.8915237426758,404.0847454071045 c0.6000000000000001,-0.9 1.5,-1.3 2.6,-1.3 c1,0 1.9,0.4 2.6,1.1 c0.7000000000000001,0.7000000000000001 1.1,1.6 1.1,2.6 s-0.4,1.9 -1.1,2.6 c-0.7000000000000001,0.7000000000000001 -1.6,1.1 -2.6,1.1 c-1.1,0 -2,-0.4 -2.6,-1.3 v3.3 h-1 v-9.1 h1 V404.0847454071045 zM966.8915237426758,406.3847454071045 c0,0.7000000000000001 0.30000000000000004,1.3 0.8,1.8 c0.5,0.5 1.1,0.8 1.8,0.8 c0.7000000000000001,0 1.3,-0.30000000000000004 1.9,-0.8 c0.5,-0.5 0.8,-1.1 0.8,-1.9 c0,-0.7000000000000001 -0.30000000000000004,-1.3 -0.8,-1.8 c-0.5,-0.5 -1.1,-0.8 -1.9,-0.8 c-0.7000000000000001,0 -1.3,0.30000000000000004 -1.8,0.8 C967.1915237426758,405.0847454071045 966.8915237426758,405.6847454071045 966.8915237426758,406.3847454071045 L966.8915237426758,406.3847454071045 z" id="svg_337"/>
		<path d="M976.1915237426758,400.7847454071045 v2.1 h1.2 v1 h-1.2 v6 h-1 v-6 h-1.2 v-1 h1.2 v-2.1 H976.1915237426758 z" id="svg_338"/>
		<path d="M983.7915237426757,409.5847454071045 c-0.6000000000000001,0.30000000000000004 -1.2,0.5 -1.8,0.5 c-1,0 -1.9,-0.4 -2.6,-1.1 c-0.7000000000000001,-0.7000000000000001 -1.1,-1.6 -1.1,-2.6 s0.4,-1.9 1.1,-2.6 c0.7000000000000001,-0.7000000000000001 1.6,-1.1 2.6,-1.1 c0.6000000000000001,0 1.2,0.2 1.8,0.5 c0.6000000000000001,0.30000000000000004 1,0.8 1.3,1.3 l0.30000000000000004,0.5 l-5.4,3.1 c0,0.1 0.1,0.1 0.1,0.2 c0.5,0.5 1.1,0.8 1.8,0.8 c0.5,0 0.9,-0.1 1.3,-0.30000000000000004 c0.4,-0.2 0.7000000000000001,-0.5 1,-0.9 l0.9,0.5 C984.7915237426757,408.7847454071045 984.3915237426758,409.2847454071045 983.7915237426757,409.5847454071045 zM979.4915237426758,407.1847454071045 l4.4,-2.6 c-0.2,-0.2 -0.4,-0.4 -0.6000000000000001,-0.5 c-0.4,-0.2 -0.8,-0.30000000000000004 -1.3,-0.30000000000000004 c-0.7000000000000001,0 -1.3,0.30000000000000004 -1.8,0.8 c-0.5,0.5 -0.8,1.1 -0.8,1.8 C979.3915237426758,406.6847454071045 979.3915237426758,406.8847454071045 979.4915237426758,407.1847454071045 z" id="svg_339"/>
		<path d="M986.4915237426758,402.8847454071045 h1 v0.8 c0.5,-0.7000000000000001 1.1,-1 2,-1 c1,0 1.7000000000000002,0.30000000000000004 2.2,1 c0.1,0.1 0.2,0.30000000000000004 0.30000000000000004,0.4 c0.1,-0.1 0.2,-0.30000000000000004 0.30000000000000004,-0.4 c0.5,-0.7000000000000001 1.3,-1 2.2,-1 c1,0 1.7000000000000002,0.30000000000000004 2.2,1 c0.5,0.7000000000000001 0.8,1.5 0.8,2.6 v3.5 h-1 v-3.5 c0,-0.9 -0.2,-1.5 -0.6000000000000001,-2 c-0.30000000000000004,-0.4 -0.8,-0.6000000000000001 -1.4,-0.6000000000000001 c-0.6000000000000001,0 -1.1,0.2 -1.4,0.6000000000000001 c-0.4,0.5 -0.6000000000000001,1.1 -0.6000000000000001,2 v3.5 h-1 v-3.5 c0,-0.9 -0.2,-1.5 -0.6000000000000001,-2 c-0.30000000000000004,-0.4 -0.8,-0.6000000000000001 -1.4,-0.6000000000000001 s-1.1,0.2 -1.4,0.6000000000000001 c-0.4,0.5 -0.6000000000000001,1.1 -0.6000000000000001,2 v3.5 h-1 V402.8847454071045 z" id="svg_340"/>
		<path d="M999.9915237426758,409.8847454071045 h-1 v-9.1 h1 v3.3 c0.6000000000000001,-0.9 1.5,-1.3 2.6,-1.3 c1,0 1.9,0.4 2.6,1.1 c0.7000000000000001,0.7000000000000001 1.1,1.6 1.1,2.6 s-0.4,1.9 -1.1,2.6 c-0.7000000000000001,0.7000000000000001 -1.6,1.1 -2.6,1.1 c-1.1,0 -2,-0.4 -2.6,-1.3 V409.8847454071045 zM999.9915237426758,406.3847454071045 c0,0.7000000000000001 0.30000000000000004,1.3 0.8,1.8 c0.5,0.5 1.1,0.8 1.8,0.8 c0.7000000000000001,0 1.3,-0.30000000000000004 1.9,-0.8 c0.5,-0.5 0.8,-1.1 0.8,-1.9 c0,-0.7000000000000001 -0.30000000000000004,-1.3 -0.8,-1.8 c-0.5,-0.5 -1.1,-0.8 -1.9,-0.8 c-0.7000000000000001,0 -1.3,0.30000000000000004 -1.8,0.8 C1000.2915237426757,405.0847454071045 999.9915237426758,405.6847454071045 999.9915237426758,406.3847454071045 L999.9915237426758,406.3847454071045 z" id="svg_341"/>
		<path d="M1013.0915237426758,409.5847454071045 c-0.6000000000000001,0.30000000000000004 -1.2,0.5 -1.8,0.5 c-1,0 -1.9,-0.4 -2.6,-1.1 c-0.7000000000000001,-0.7000000000000001 -1.1,-1.6 -1.1,-2.6 s0.4,-1.9 1.1,-2.6 c0.7000000000000001,-0.7000000000000001 1.6,-1.1 2.6,-1.1 c0.6000000000000001,0 1.2,0.2 1.8,0.5 c0.6000000000000001,0.30000000000000004 1,0.8 1.3,1.3 l0.30000000000000004,0.5 l-5.4,3.1 c0,0.1 0.1,0.1 0.1,0.2 c0.5,0.5 1.1,0.8 1.8,0.8 c0.5,0 0.9,-0.1 1.3,-0.30000000000000004 c0.4,-0.2 0.7000000000000001,-0.5 1,-0.9 l0.9,0.5 C1014.0915237426758,408.7847454071045 1013.5915237426758,409.2847454071045 1013.0915237426758,409.5847454071045 zM1008.7915237426757,407.1847454071045 l4.4,-2.6 c-0.2,-0.2 -0.4,-0.4 -0.6000000000000001,-0.5 c-0.4,-0.2 -0.8,-0.30000000000000004 -1.3,-0.30000000000000004 c-0.7000000000000001,0 -1.3,0.30000000000000004 -1.8,0.8 c-0.5,0.5 -0.8,1.1 -0.8,1.8 C1008.5915237426758,406.6847454071045 1008.6915237426758,406.8847454071045 1008.7915237426757,407.1847454071045 z" id="svg_342"/>
		<path d="M1020.7915237426757,404.48474540710447 c-0.4,-0.5 -1,-0.7000000000000001 -1.7000000000000002,-0.7000000000000001 s-1.2,0.2 -1.7000000000000002,0.7000000000000001 c-0.5,0.5 -0.7000000000000001,1.1 -0.7000000000000001,1.9 v3.5 h-1 v-7 h1 v1 c0.6000000000000001,-0.8 1.4,-1.2 2.4,-1.2 c1,0 1.8,0.4 2.4,1.1 c0.30000000000000004,0.30000000000000004 0.5,0.6000000000000001 0.6000000000000001,0.9 l-0.9,0.5 C1021.1915237426758,404.8847454071045 1020.9915237426758,404.6847454071045 1020.7915237426757,404.48474540710447 z" id="svg_343"/>
		<path d="M949.6915237426758,421.5847454071045 c0,-1.2 0.4,-2.2 1.3,-3.1 c0.9,-0.9 1.9,-1.3 3.1,-1.3 s2.2,0.4 3.1,1.3 c0.9,0.9 1.3,1.9 1.3,3.1 c0,0.7000000000000001 -0.2,1.3 -0.5,1.9 c-0.2,0.4 -0.6000000000000001,0.9 -1,1.4 l-4.3,5.1 h6 v1.6 h-9.5 l6.7,-7.9 c0.30000000000000004,-0.4 0.6000000000000001,-0.7000000000000001 0.8,-1.1 c0.2,-0.4 0.30000000000000004,-0.7000000000000001 0.30000000000000004,-1.1 c0,-0.8 -0.30000000000000004,-1.4 -0.8,-1.9 c-0.5,-0.5 -1.2,-0.8 -1.9,-0.8 s-1.4,0.30000000000000004 -1.9,0.8 c-0.5,0.5 -0.8,1.2 -0.8,1.9 H949.6915237426758 z" id="svg_344"/>
		<path d="M969.6915237426758,419.48474540710447 c0.9,1.4 1.3,3.1 1.3,5.1 c0,2 -0.4,3.7 -1.3,5.1 c-1,1.5 -2.3,2.3 -4,2.3 c-1.7000000000000002,0 -3,-0.8 -4,-2.3 c-0.9,-1.4 -1.3,-3.1 -1.3,-5.1 c0,-2 0.4,-3.7 1.3,-5.1 c1,-1.5 2.3,-2.3 4,-2.3 C967.3915237426758,417.0847454071045 968.6915237426758,417.8847454071045 969.6915237426758,419.48474540710447 zM962.8915237426758,420.5847454071045 c-0.6000000000000001,1.1 -0.9,2.4 -0.9,4 c0,1.6 0.30000000000000004,2.9 0.9,4 c0.7000000000000001,1.2 1.6,1.8 2.8,1.8 c1.2,0 2.1,-0.6000000000000001 2.8,-1.8 c0.6000000000000001,-1.1 0.9,-2.4 0.9,-4 c0,-1.6 -0.30000000000000004,-2.9 -0.9,-4 c-0.7000000000000001,-1.2 -1.6,-1.8 -2.8,-1.8 C964.4915237426758,418.7847454071045 963.5915237426758,419.3847454071045 962.8915237426758,420.5847454071045 z" id="svg_345"/>
		<path d="M975.9915237426758,431.6847454071045 v-10.8 l-2.7,3.1 l-1.2,-1.1 l5.6,-6.5 v15.2 H975.9915237426758 z" id="svg_346"/>
		<path d="M979.6915237426758,417.3847454071045 h10.5 l-7.1,14.3 h-1.8 l6.3,-12.6 h-7.9 V417.3847454071045 z" id="svg_347"/>
	</g>
	<g id="svg_348">
		<path class="st79" d="M1008.5915237426758,295.7847454071045 c0,0 -4,8.7 -5.9,13.9 s-4.1,14.7 -4.1,14.7 l-12.7,18.6 L975.4915237426758,330.5847454071045 l-18.2,37 l15.9,-56.3 l12.8,17.6 L1008.5915237426758,295.7847454071045 z" id="svg_349"/>
		<g id="svg_350">
			<path class="st80" d="M1010.0915237426758,326.8847454071045 c-2.7,-5.8 -3.8,-8.3 -3.6,-13.6 c0.2,-5.6 3.1,-17.5 3.1,-17.5 s-4,8.8 -5.9,13.9 c-1.9,5.2 -4.1,14.7 -4.1,14.7 s0.5,1.2 0.7000000000000001,1.8 c0.5,1.2 1,2.3 1.5,3.3 c1.4,2.5 4.8,7.3 3.7,13.9 c-1.3,7.9 -8.9,20 -9,20.2 c0.2,-0.1 12.8,-8.8 15.8,-18.6 C1014.0915237426758,339.5847454071045 1012.7915237426757,332.6847454071045 1010.0915237426758,326.8847454071045 z" id="svg_351"/>
		</g>
	</g>
</g><g id="Down-arrow">
	<g id="a2" class="st81">
		<line class="st82" x1="578.2999877929688" y1="507.6000061035156" x2="600" y2="530.5999755859375" id="svg_352"/>
		<line class="st82" x1="621.7000122070312" y1="507.6000061035156" x2="600" y2="530.5999755859375" id="svg_353"/>
	</g>
	<g id="a1" class="st81">
		<line class="st82" x1="578.2999877929688" y1="492.1000061035156" x2="600" y2="515.0999755859375" id="svg_354"/>
		<line class="st82" x1="621.7000122070312" y1="492.1000061035156" x2="600" y2="515.0999755859375" id="svg_355"/>
	</g>
	<g id="a3" class="st81">
		<line class="st82" x1="578.2999877929688" y1="523.4000244140625" x2="600" y2="546.4000244140625" id="svg_356"/>
		<line class="st82" x1="621.7000122070312" y1="523.4000244140625" x2="600" y2="546.4000244140625" id="svg_357"/>
	</g>
</g><g id="TV_1_" class="">
	<g id="svg_358">
		<g id="svg_359">
			<g id="TV">
				<path class="st60" d="M430,220.4H290.6c-0.8,0-1.3-0.6-1.3-1.3v-86.2c0-0.6,0.5-1.3,1.3-1.3h139.6c0.8,0,1.3,0.6,1.3,1.3v86.2      C431.3,219.7,430.8,220.4,430,220.4z" id="svg_360"/>
				<rect x="295.1000061035156" y="138.8000030517578" class="st61" width="130.3000030517578" height="67.80000305175781" id="svg_361"/>
				<path class="st62" d="M295.1,185c0,0,29.2-12.4,67.1-17.1s63.2-3.8,63.2-3.8v42.4H295.1V185z" id="svg_362"/>
			</g>
		</g>
	</g>
	<g id="svg_363">
		<path class="st1" d="M317.6,161.2c-0.2,0-0.5,0-0.7-0.1c-0.2-0.1-0.4-0.2-0.5-0.3c-0.2-0.1-0.3-0.3-0.4-0.5    c-0.1-0.2-0.1-0.4-0.1-0.7v-3.2h0.6v3.2c0,0.2,0,0.3,0.1,0.5s0.1,0.2,0.2,0.3c0.1,0.1,0.2,0.2,0.4,0.2c0.1,0,0.3,0.1,0.5,0.1    c0.2,0,0.3,0,0.5-0.1c0.1,0,0.3-0.1,0.4-0.2c0.1-0.1,0.2-0.2,0.2-0.3c0.1-0.1,0.1-0.3,0.1-0.5v-3.2h0.6v3.2c0,0.3,0,0.5-0.1,0.7    c-0.1,0.2-0.2,0.4-0.4,0.5c-0.2,0.1-0.3,0.2-0.5,0.3C318.1,161.2,317.9,161.2,317.6,161.2z" id="svg_364"/>
		<path class="st1" d="M324.7,156.4v5c-0.6-0.6-1.2-1.2-1.7-1.9c-0.6-0.6-1.2-1.2-1.7-1.9c0,0,0-0.1-0.1-0.1c0,0,0-0.1-0.1-0.1    c0,0,0,0.1,0,0.1c0,0,0,0.1,0,0.1v3.4h-0.6v-5c0.6,0.6,1.2,1.3,1.7,1.9s1.2,1.3,1.7,1.9c0,0,0,0.1,0.1,0.1s0,0.1,0.1,0.1    c0,0,0-0.1,0-0.1c0,0,0-0.1,0-0.1v-3.5H324.7z" id="svg_365"/>
		<path class="st1" d="M325.8,156.4h1.1c0.3,0,0.6,0.1,0.9,0.2c0.3,0.1,0.5,0.3,0.8,0.5s0.4,0.5,0.5,0.8s0.2,0.6,0.2,1    c0,0.3,0,0.5-0.1,0.8c-0.1,0.3-0.2,0.5-0.5,0.8s-0.5,0.4-0.8,0.6c-0.3,0.1-0.7,0.2-1.2,0.2h-0.9V156.4z M326.3,156.9v3.7h0.5    c0.3,0,0.5,0,0.7-0.1c0.2-0.1,0.4-0.2,0.6-0.4c0.2-0.2,0.3-0.4,0.4-0.6c0.1-0.2,0.1-0.5,0.1-0.8s0-0.5-0.1-0.8    c-0.1-0.2-0.2-0.4-0.4-0.6c-0.2-0.2-0.4-0.3-0.6-0.4c-0.2-0.1-0.5-0.1-0.7-0.1H326.3z" id="svg_366"/>
		<path class="st1" d="M330.3,161.2v-4.8h2.9v0.5h-2.4v1.6h2.1v0.5h-2.1v1.6h2.5v0.5H330.3z" id="svg_367"/>
		<path class="st1" d="M334.3,161.2v-4.8h1.1c0.2,0,0.3,0,0.5,0.1c0.2,0,0.4,0.1,0.5,0.2c0.2,0.1,0.3,0.2,0.4,0.4    c0.1,0.2,0.2,0.4,0.2,0.6c0,0.3-0.1,0.6-0.3,0.9c-0.2,0.2-0.4,0.4-0.7,0.5l1,2.2h-0.6l-1-2.1h-0.1h-0.5v2.1H334.3z M334.8,158.5    h0.6c0.2,0,0.4,0,0.5-0.1s0.2-0.1,0.3-0.2s0.1-0.2,0.2-0.3s0-0.2,0-0.3c0-0.1,0-0.2-0.1-0.3c-0.1-0.1-0.1-0.2-0.2-0.2    c-0.1-0.1-0.2-0.1-0.3-0.2c-0.1,0-0.3-0.1-0.4-0.1h-0.6V158.5z" id="svg_368"/>
		<path class="st1" d="M343.2,156.4v0.5h-1.6v4.2H341v-4.2h-1.6v-0.5H343.2z" id="svg_369"/>
		<path class="st1" d="M343.7,161.2v-4.8h0.6v2.1h2.6v-2.1h0.6v4.8h-0.6V159h-2.6v2.1H343.7z" id="svg_370"/>
		<path class="st1" d="M348.4,161.2v-4.8h2.9v0.5H349v1.6h2.1v0.5H349v1.6h2.5v0.5H348.4z" id="svg_371"/>
		<path class="st1" d="M354.5,161.2v-4.8h1.1c0.2,0,0.3,0,0.5,0.1c0.2,0,0.4,0.1,0.5,0.2c0.2,0.1,0.3,0.2,0.4,0.4    c0.1,0.2,0.2,0.4,0.2,0.6c0,0.4-0.1,0.7-0.4,1c-0.2,0.2-0.6,0.4-1.1,0.4h-0.7v2.1H354.5z M355.1,158.5h0.6c0.2,0,0.4,0,0.5-0.1    s0.2-0.1,0.3-0.2s0.1-0.2,0.2-0.3s0-0.2,0-0.3c0-0.1,0-0.2-0.1-0.3c-0.1-0.1-0.1-0.2-0.2-0.2c-0.1-0.1-0.2-0.1-0.3-0.2    c-0.1,0-0.3-0.1-0.4-0.1h-0.6V158.5z" id="svg_372"/>
		<path class="st1" d="M362.1,161.2h-0.6c-0.1-0.3-0.3-0.6-0.4-0.9c-0.1-0.3-0.3-0.6-0.4-0.9h-1.5c-0.1,0.3-0.3,0.6-0.4,0.9    c-0.1,0.3-0.3,0.6-0.4,0.9h-0.6c0.4-0.8,0.7-1.7,1.1-2.5c0.3-0.8,0.7-1.7,1.1-2.5c0.4,0.8,0.7,1.7,1.1,2.5    C361.3,159.5,361.7,160.3,362.1,161.2z M360,157.7l-0.1-0.2c-0.1,0.2-0.1,0.4-0.2,0.7c-0.1,0.2-0.2,0.4-0.3,0.6h1    c-0.1-0.2-0.2-0.4-0.2-0.5S360.1,157.9,360,157.7z" id="svg_373"/>
		<path class="st1" d="M366.2,156.4v0.5h-1.6v4.2h-0.6v-4.2h-1.6v-0.5H366.2z" id="svg_374"/>
		<path class="st1" d="M366.6,161.2v-4.8h1.1c0.2,0,0.3,0,0.5,0.1c0.2,0,0.4,0.1,0.5,0.2c0.2,0.1,0.3,0.2,0.4,0.4    c0.1,0.2,0.2,0.4,0.2,0.6c0,0.3-0.1,0.6-0.3,0.9c-0.2,0.2-0.4,0.4-0.7,0.5l1,2.2h-0.6l-1-2.1h-0.1h-0.5v2.1H366.6z M367.2,158.5    h0.6c0.2,0,0.4,0,0.5-0.1s0.2-0.1,0.3-0.2s0.1-0.2,0.2-0.3s0-0.2,0-0.3c0-0.1,0-0.2-0.1-0.3c-0.1-0.1-0.1-0.2-0.2-0.2    c-0.1-0.1-0.2-0.1-0.3-0.2c-0.1,0-0.3-0.1-0.4-0.1h-0.6V158.5z" id="svg_375"/>
		<path class="st1" d="M370.2,158.8c0-0.3,0.1-0.6,0.2-0.9s0.3-0.6,0.5-0.8c0.2-0.2,0.5-0.4,0.8-0.5c0.3-0.1,0.6-0.2,0.9-0.2    c0.3,0,0.6,0.1,0.9,0.2c0.3,0.1,0.6,0.3,0.8,0.5c0.2,0.2,0.4,0.5,0.5,0.8c0.1,0.3,0.2,0.6,0.2,0.9c0,0.3-0.1,0.7-0.2,0.9    c-0.1,0.3-0.3,0.6-0.5,0.8c-0.2,0.2-0.5,0.4-0.8,0.5c-0.3,0.1-0.6,0.2-0.9,0.2c-0.3,0-0.7-0.1-0.9-0.2s-0.6-0.3-0.8-0.5    c-0.2-0.2-0.4-0.5-0.5-0.8S370.2,159.1,370.2,158.8z M370.7,158.8c0,0.3,0,0.5,0.1,0.7c0.1,0.2,0.2,0.4,0.4,0.6    c0.2,0.2,0.4,0.3,0.6,0.4c0.2,0.1,0.5,0.1,0.7,0.1c0.3,0,0.5,0,0.7-0.1c0.2-0.1,0.4-0.2,0.6-0.4c0.2-0.2,0.3-0.4,0.4-0.6    c0.1-0.2,0.1-0.5,0.1-0.7c0-0.3,0-0.5-0.1-0.7c-0.1-0.2-0.2-0.4-0.4-0.6c-0.2-0.2-0.4-0.3-0.6-0.4c-0.2-0.1-0.5-0.1-0.7-0.1    c-0.3,0-0.5,0.1-0.7,0.1c-0.2,0.1-0.4,0.2-0.6,0.4s-0.3,0.4-0.4,0.6C370.8,158.3,370.7,158.5,370.7,158.8z" id="svg_376"/>
		<path class="st1" d="M380.3,156.4v5c-0.6-0.6-1.2-1.2-1.7-1.9c-0.6-0.6-1.2-1.2-1.7-1.9c0,0,0-0.1-0.1-0.1c0,0,0-0.1-0.1-0.1    c0,0,0,0.1,0,0.1c0,0,0,0.1,0,0.1v3.4h-0.6v-5c0.6,0.6,1.2,1.3,1.7,1.9s1.2,1.3,1.7,1.9c0,0,0,0.1,0.1,0.1s0,0.1,0.1,0.1    c0,0,0-0.1,0-0.1c0,0,0-0.1,0-0.1v-3.5H380.3z" id="svg_377"/>
		<path class="st1" d="M385.6,161.2h-0.6c-0.1-0.3-0.3-0.6-0.4-0.9c-0.1-0.3-0.3-0.6-0.4-0.9h-1.5c-0.1,0.3-0.3,0.6-0.4,0.9    c-0.1,0.3-0.3,0.6-0.4,0.9h-0.6c0.4-0.8,0.7-1.7,1.1-2.5c0.3-0.8,0.7-1.7,1.1-2.5c0.4,0.8,0.7,1.7,1.1,2.5    C384.9,159.5,385.3,160.3,385.6,161.2z M383.6,157.7l-0.1-0.2c-0.1,0.2-0.1,0.4-0.2,0.7c-0.1,0.2-0.2,0.4-0.3,0.6h1    c-0.1-0.2-0.2-0.4-0.2-0.5S383.7,157.9,383.6,157.7z" id="svg_378"/>
		<path class="st1" d="M388.9,159.7v-0.5h0.9c0.1,0,0.2,0,0.3,0.1c0,0.1,0.1,0.2,0.1,0.3v1.3c-0.2,0.1-0.4,0.2-0.6,0.2    c-0.2,0.1-0.4,0.1-0.7,0.1c-0.3,0-0.7-0.1-0.9-0.2s-0.6-0.3-0.8-0.5c-0.2-0.2-0.4-0.5-0.5-0.8s-0.2-0.6-0.2-0.9    c0-0.3,0.1-0.7,0.2-0.9s0.3-0.6,0.5-0.8c0.2-0.2,0.5-0.4,0.8-0.5c0.3-0.1,0.6-0.2,0.9-0.2c0.2,0,0.5,0,0.7,0.1    c0.2,0.1,0.4,0.1,0.6,0.3c-0.1,0.1-0.1,0.2-0.2,0.2c-0.1,0.1-0.1,0.2-0.2,0.2c-0.1-0.1-0.3-0.1-0.4-0.2s-0.3-0.1-0.5-0.1    c-0.3,0-0.5,0.1-0.7,0.1s-0.4,0.2-0.6,0.4c-0.2,0.2-0.3,0.4-0.4,0.6c-0.1,0.2-0.1,0.5-0.1,0.7c0,0.3,0,0.5,0.1,0.7    c0.1,0.2,0.2,0.4,0.4,0.6c0.2,0.2,0.4,0.3,0.6,0.4c0.2,0.1,0.5,0.1,0.7,0.1c0.2,0,0.5,0,0.7-0.1v-0.7c0-0.1,0-0.1,0-0.2    c0,0-0.1,0-0.1,0H388.9z" id="svg_379"/>
		<path class="st1" d="M391.2,161.2v-4.8h2.9v0.5h-2.4v1.6h2.1v0.5h-2.1v1.6h2.5v0.5H391.2z" id="svg_380"/>
		<path class="st1" d="M397.3,158.8c0-0.3,0.1-0.6,0.2-0.9s0.3-0.6,0.5-0.8c0.2-0.2,0.5-0.4,0.8-0.5c0.3-0.1,0.6-0.2,0.9-0.2    c0.3,0,0.6,0.1,0.9,0.2c0.3,0.1,0.6,0.3,0.8,0.5c0.2,0.2,0.4,0.5,0.5,0.8c0.1,0.3,0.2,0.6,0.2,0.9c0,0.3-0.1,0.7-0.2,0.9    c-0.1,0.3-0.3,0.6-0.5,0.8c-0.2,0.2-0.5,0.4-0.8,0.5c-0.3,0.1-0.6,0.2-0.9,0.2c-0.3,0-0.7-0.1-0.9-0.2s-0.6-0.3-0.8-0.5    c-0.2-0.2-0.4-0.5-0.5-0.8S397.3,159.1,397.3,158.8z M397.9,158.8c0,0.3,0,0.5,0.1,0.7c0.1,0.2,0.2,0.4,0.4,0.6    c0.2,0.2,0.4,0.3,0.6,0.4c0.2,0.1,0.5,0.1,0.7,0.1c0.3,0,0.5,0,0.7-0.1c0.2-0.1,0.4-0.2,0.6-0.4c0.2-0.2,0.3-0.4,0.4-0.6    c0.1-0.2,0.1-0.5,0.1-0.7c0-0.3,0-0.5-0.1-0.7c-0.1-0.2-0.2-0.4-0.4-0.6c-0.2-0.2-0.4-0.3-0.6-0.4c-0.2-0.1-0.5-0.1-0.7-0.1    c-0.3,0-0.5,0.1-0.7,0.1c-0.2,0.1-0.4,0.2-0.6,0.4s-0.3,0.4-0.4,0.6C397.9,158.3,397.9,158.5,397.9,158.8z" id="svg_381"/>
		<path class="st1" d="M403,161.2v-4.8h2.9v0.5h-2.4v1.6h2.1v0.5h-2.1v2.1H403z" id="svg_382"/>
	</g>
</g><rect fill="#dadada" stroke-dashoffset="" fill-rule="nonzero" id="svg_383" x="311" y="151" width="76" height="3" style="color: rgb(108, 160, 209);"/><rect fill="#dadada" stroke-dashoffset="" fill-rule="nonzero" id="svg_385" x="313" y="151" width="95" height="11" style="color: rgb(108, 160, 209);"/><rect fill="#5186b5" stroke-dashoffset="" fill-rule="nonzero" id="svg_384" x="936" y="365" width="15" height="2" style="color: rgb(81, 134, 181);"/><rect fill="#6767e7" stroke-dashoffset="" fill-rule="nonzero" id="svg_386" x="945" y="380" width="85" height="57" style="color: rgb(81, 134, 181);"/><rect fill="#6767e7" stroke-dashoffset="" fill-rule="nonzero" id="svg_388" x="934.6949152946472" y="369" width="109" height="77" style="color: rgb(81, 134, 181);" class=""/></g></svg>
